<svg id="add_2_" data-name="add (2)" xmlns="http://www.w3.org/2000/svg" width="16.7" height="16.7" viewBox="0 0 16.7 16.7">
  <g id="Group_5071" data-name="Group 5071">
    <g id="Group_5070" data-name="Group 5070">
      <path id="Path_2395" data-name="Path 2395" d="M8.35,0A8.35,8.35,0,1,0,16.7,8.35,8.359,8.359,0,0,0,8.35,0Zm0,15.406A7.056,7.056,0,1,1,15.406,8.35,7.065,7.065,0,0,1,8.35,15.406Z" fill="#e6eef5"/>
    </g>
  </g>
  <g id="Group_5073" data-name="Group 5073" transform="translate(4.469 4.411)">
    <g id="Group_5072" data-name="Group 5072">
      <path id="Path_2396" data-name="Path 2396" d="M144.137,138.472H141.55v-2.587a.647.647,0,0,0-1.294,0v2.587h-2.587a.647.647,0,1,0,0,1.294h2.587v2.587a.647.647,0,0,0,1.294,0v-2.587h2.587a.647.647,0,1,0,0-1.294Z" transform="translate(-137.022 -135.238)" fill="#e6eef5"/>
    </g>
  </g>
</svg>
