<?xml version="1.0" encoding="utf-8"?>
<!-- Generator: Adobe Illustrator 24.3.0, SVG Export Plug-In . SVG Version: 6.00 Build 0)  -->
<svg version="1.1" id="Layer_1" xmlns="http://www.w3.org/2000/svg" xmlns:xlink="http://www.w3.org/1999/xlink" x="0px" y="0px"
	 viewBox="0 0 300 300" style="enable-background:new 0 0 300 300;" xml:space="preserve">
<style type="text/css">
	.st0{fill-rule:evenodd;clip-rule:evenodd;fill:#E6EEF5;}
</style>
<desc>Created with Sketch.</desc>
<g>
	<path class="st0" d="M283.3,266.7H41.7c-4.6,0-8.3-3.7-8.3-8.3V16.7C33.3,7.5,25.9,0,16.7,0S0,7.5,0,16.7v250
		C0,285.1,14.9,300,33.3,300h250c9.2,0,16.7-7.5,16.7-16.7C300,274.1,292.5,266.7,283.3,266.7 M100,150c18.4,0,33.3-14.9,33.3-33.3
		c0-18.4-14.9-33.3-33.3-33.3s-33.3,14.9-33.3,33.3C66.7,135.1,81.6,150,100,150 M216.7,133.3c27.6,0,50-22.4,50-50s-22.4-50-50-50
		s-50,22.4-50,50S189.1,133.3,216.7,133.3 M175,216.7c13.8,0,25-11.2,25-25c0-13.8-11.2-25-25-25c-13.8,0-25,11.2-25,25
		C150,205.5,161.2,216.7,175,216.7"/>
</g>
</svg>
