<?xml version="1.0" encoding="utf-8"?>
<!-- Generator: Adobe Illustrator 24.3.0, SVG Export Plug-In . SVG Version: 6.00 Build 0)  -->
<svg version="1.1" id="Layer_1" xmlns="http://www.w3.org/2000/svg" xmlns:xlink="http://www.w3.org/1999/xlink" x="0px" y="0px"
	 viewBox="0 0 226.7 270.5" style="enable-background:new 0 0 226.7 270.5;" xml:space="preserve">
<style type="text/css">
	.st0{fill:none;}
	.st1{fill:#E6EEF5;}
</style>
<g>
	<path class="st0" d="M183.7,115.3c-19.8,0-36,16.1-36,36c0,19.8,16.1,36,36,36c19.8,0,36-16.1,36-36
		C219.7,131.5,203.5,115.3,183.7,115.3z"/>
	<path class="st0" d="M140.5,59.2l49.4-49.4c-4-1.6-8.4-2.6-12.9-2.7l-39.1,39.1C137.9,50.8,138.9,55.1,140.5,59.2z"/>
	<path class="st0" d="M54.7,91.3c1.6,0,2.9,1.3,2.9,2.9c0,1.6-1.3,2.9-2.9,2.9c-0.4,0-0.7-0.1-1-0.2c3,6.3,8.5,11.3,15.2,13.5
		c-0.2-0.4-0.3-0.8-0.3-1.2c0-1.6,1.3-2.9,2.9-2.9c1.6,0,2.9,1.3,2.9,2.9c0,0.9-0.4,1.7-1.1,2.3c1.2,0.2,2.4,0.3,3.6,0.3
		c2.8,0,5.4-0.4,7.9-1.2c-0.2-0.4-0.3-0.8-0.3-1.3c0-1.6,1.3-2.9,2.9-2.9c1.2,0,2.3,0.7,2.7,1.8c1.6-1,3.1-2.1,4.4-3.3
		c-1.4-0.2-2.5-1.4-2.5-2.9c0-1.6,1.3-2.9,2.9-2.9c1.3,0,2.5,0.9,2.8,2.2c1.1-1.5,2-3.1,2.8-4.8c-0.6-0.5-1-1.3-1-2.2
		c0-1.5,1.2-2.7,2.6-2.9c0.4-1.7,0.6-3.5,0.6-5.4c0-1.4-0.1-2.7-0.3-4.1c-0.3,0.1-0.5,0.1-0.8,0.1c-1.6,0-2.9-1.3-2.9-2.9
		c0-1.4,0.9-2.5,2.2-2.8c-2.5-6-7.1-10.9-13-13.7C88,62.8,88,63,88,63.3c0,1.6-1.3,2.9-2.9,2.9c-1.6,0-2.9-1.3-2.9-2.9
		c0-1,0.5-1.8,1.2-2.3c-2-0.5-4.1-0.8-6.3-0.8c-2.1,0-4.2,0.3-6.2,0.8c0.7,0.5,1.2,1.4,1.2,2.4c0,1.6-1.3,2.9-2.9,2.9
		c-1.6,0-2.9-1.3-2.9-2.9c0-0.3,0.1-0.5,0.1-0.8c-6,2.7-10.7,7.7-13.2,13.8c0.2-0.1,0.5-0.1,0.7-0.1c1.6,0,2.9,1.3,2.9,2.9
		s-1.3,2.9-2.9,2.9c-0.9,0-1.6-0.4-2.1-0.9c-0.3,1.6-0.5,3.2-0.5,4.9c0,2.4,0.4,4.7,1,6.9C52.7,91.9,53.6,91.3,54.7,91.3z
		 M94.2,88.9c-1.6,0-2.9-1.3-2.9-2.9s1.3-2.9,2.9-2.9s2.9,1.3,2.9,2.9S95.8,88.9,94.2,88.9z M93.5,67.7c1.6,0,2.9,1.3,2.9,2.9
		c0,1.6-1.3,2.9-2.9,2.9c-1.6,0-2.9-1.3-2.9-2.9C90.6,69,91.9,67.7,93.5,67.7z M89.6,94.3c0,1.6-1.3,2.9-2.9,2.9
		c-1.6,0-2.9-1.3-2.9-2.9c0-1.6,1.3-2.9,2.9-2.9C88.3,91.3,89.6,92.6,89.6,94.3z M85.8,76.2c1.6,0,2.9,1.3,2.9,2.9
		c0,1.6-1.3,2.9-2.9,2.9c-1.6,0-2.9-1.3-2.9-2.9C82.8,77.5,84.1,76.2,85.8,76.2z M82,101.9c0,1.6-1.3,2.9-2.9,2.9
		c-1.6,0-2.9-1.3-2.9-2.9c0-1.6,1.3-2.9,2.9-2.9C80.7,99,82,100.3,82,101.9z M78.2,88.9c-1.6,0-2.9-1.3-2.9-2.9s1.3-2.9,2.9-2.9
		s2.9,1.3,2.9,2.9S79.8,88.9,78.2,88.9z M77.6,67.7c1.6,0,2.9,1.3,2.9,2.9c0,1.6-1.3,2.9-2.9,2.9c-1.6,0-2.9-1.3-2.9-2.9
		C74.6,69,76,67.7,77.6,67.7z M73.6,94.3c0,1.6-1.3,2.9-2.9,2.9c-1.6,0-2.9-1.3-2.9-2.9c0-1.6,1.3-2.9,2.9-2.9
		C72.3,91.3,73.6,92.6,73.6,94.3z M69.8,76.2c1.6,0,2.9,1.3,2.9,2.9c0,1.6-1.3,2.9-2.9,2.9c-1.6,0-2.9-1.3-2.9-2.9
		C66.9,77.5,68.2,76.2,69.8,76.2z M66.1,101.9c0,1.6-1.3,2.9-2.9,2.9s-2.9-1.3-2.9-2.9c0-1.6,1.3-2.9,2.9-2.9S66.1,100.3,66.1,101.9
		z M62.3,88.9c-1.6,0-2.9-1.3-2.9-2.9s1.3-2.9,2.9-2.9c1.6,0,2.9,1.3,2.9,2.9S63.9,88.9,62.3,88.9z M61.6,67.7
		c1.6,0,2.9,1.3,2.9,2.9c0,1.6-1.3,2.9-2.9,2.9c-1.6,0-2.9-1.3-2.9-2.9C58.7,69,60,67.7,61.6,67.7z"/>
	<path class="st0" d="M213.3,51l-31.6,31.6C197.9,80.1,210.7,67.2,213.3,51z"/>
	<path class="st0" d="M160.1,79.7l50.2-50.3c-1.6-3.5-3.7-6.7-6.1-9.5l-53.6,53.6C153.4,76,156.6,78.1,160.1,79.7z"/>
	<path class="st0" d="M172.3,7.3c-18.2,1.6-32.8,16.2-34.4,34.4L172.3,7.3z"/>
	<path class="st0" d="M148.3,71.4L202,17.7c-2.7-2.6-5.8-4.8-9.1-6.5l-51,51C143.5,65.6,145.7,68.7,148.3,71.4z"/>
	<path class="st0" d="M175.7,83.1c0.3,0,0.7,0,1,0l36.9-36.9c0-0.3,0-0.7,0-1c0-4.4-0.7-8.6-2.1-12.5l-48.4,48.4
		C167.2,82.3,171.4,83.1,175.7,83.1z"/>
	<circle class="st1" cx="67.5" cy="203" r="67.5"/>
	<path class="st1" d="M183.7,108.2c-23.7,0-43,19.3-43,43c0,23.7,19.3,43.1,43,43.1s43.1-19.3,43.1-43.1
		C226.7,127.6,207.4,108.2,183.7,108.2z M183.7,187.3c-19.8,0-36-16.1-36-36c0-19.8,16.1-36,36-36c19.8,0,36,16.1,36,36
		C219.7,171.1,203.5,187.3,183.7,187.3z"/>
	<path class="st1" d="M175.7,90.2c24.9,0,45.1-20.2,45.1-45.1c0-24.9-20.2-45.1-45.1-45.1c-24.9,0-45.1,20.2-45.1,45.1
		S150.9,90.2,175.7,90.2z M181.6,82.6L213.3,51C210.7,67.2,197.9,80.1,181.6,82.6z M213.7,45.1c0,0.3,0,0.7,0,1L176.8,83
		c-0.3,0-0.7,0-1,0c-4.4,0-8.6-0.8-12.5-2.1l48.4-48.4C213,36.5,213.7,40.7,213.7,45.1z M210.3,29.4l-50.2,50.3
		c-3.5-1.6-6.7-3.7-9.5-6.1l53.6-53.6C206.7,22.8,208.7,26,210.3,29.4z M172.3,7.3l-34.4,34.4C139.5,23.4,154.1,8.9,172.3,7.3z
		 M137.8,46.2l39.1-39.1c4.6,0.1,8.9,1.1,12.9,2.7l-49.4,49.4C138.9,55.1,137.9,50.8,137.8,46.2z M192.9,11.2
		c3.4,1.7,6.4,3.9,9.1,6.5l-53.7,53.7c-2.6-2.7-4.8-5.8-6.5-9.1L192.9,11.2z"/>
	<circle class="st1" cx="62.3" cy="86" r="2.9"/>
	<circle class="st1" cx="69.8" cy="79.1" r="2.9"/>
	<circle class="st1" cx="63.2" cy="101.9" r="2.9"/>
	<circle class="st1" cx="70.7" cy="94.3" r="2.9"/>
	<circle class="st1" cx="78.2" cy="86" r="2.9"/>
	<path class="st1" d="M85.8,82.1c1.6,0,2.9-1.3,2.9-2.9c0-1.6-1.3-2.9-2.9-2.9c-1.6,0-2.9,1.3-2.9,2.9
		C82.8,80.7,84.1,82.1,85.8,82.1z"/>
	<circle class="st1" cx="79.1" cy="101.9" r="2.9"/>
	<circle class="st1" cx="86.6" cy="94.3" r="2.9"/>
	<circle class="st1" cx="94.2" cy="86" r="2.9"/>
	<circle class="st1" cx="61.6" cy="70.6" r="2.9"/>
	<circle class="st1" cx="77.6" cy="70.6" r="2.9"/>
	<circle class="st1" cx="93.5" cy="70.6" r="2.9"/>
	<path class="st1" d="M77,118.9c18.2,0,32.9-14.8,32.9-32.9c0-18.2-14.8-32.9-32.9-32.9c-18.1,0-32.9,14.8-32.9,32.9
		C44.1,104.1,58.9,118.9,77,118.9z M54.7,91.3c-1.1,0-2.1,0.6-2.6,1.5c-0.6-2.2-1-4.5-1-6.9c0-1.7,0.2-3.3,0.5-4.9
		c0.5,0.6,1.3,0.9,2.1,0.9c1.6,0,2.9-1.3,2.9-2.9c0-1.6-1.3-2.9-2.9-2.9c-0.2,0-0.5,0-0.7,0.1c2.5-6.1,7.2-11.1,13.2-13.8
		c-0.1,0.2-0.1,0.5-0.1,0.8c0,1.6,1.3,2.9,2.9,2.9c1.6,0,2.9-1.3,2.9-2.9c0-1-0.5-1.8-1.2-2.4c2-0.5,4-0.8,6.2-0.8
		c2.2,0,4.3,0.3,6.3,0.8c-0.7,0.5-1.2,1.4-1.2,2.3c0,1.6,1.3,2.9,2.9,2.9c1.6,0,2.9-1.3,2.9-2.9c0-0.2,0-0.5-0.1-0.7
		c5.9,2.8,10.6,7.7,13,13.7c-1.3,0.3-2.2,1.5-2.2,2.8c0,1.6,1.3,2.9,2.9,2.9c0.3,0,0.6-0.1,0.8-0.1c0.2,1.3,0.3,2.7,0.3,4.1
		c0,1.8-0.2,3.6-0.6,5.4c-1.5,0.2-2.6,1.4-2.6,2.9c0,0.9,0.4,1.6,1,2.2c-0.7,1.7-1.7,3.3-2.8,4.8c-0.4-1.2-1.5-2.2-2.8-2.2
		c-1.6,0-2.9,1.3-2.9,2.9c0,1.5,1.1,2.7,2.5,2.9c-1.3,1.3-2.8,2.4-4.4,3.3c-0.4-1.1-1.5-1.8-2.7-1.8c-1.6,0-2.9,1.3-2.9,2.9
		c0,0.5,0.1,0.9,0.3,1.3c-2.5,0.8-5.1,1.2-7.9,1.2c-1.2,0-2.4-0.1-3.6-0.3c0.7-0.5,1.1-1.4,1.1-2.3c0-1.6-1.3-2.9-2.9-2.9
		c-1.6,0-2.9,1.3-2.9,2.9c0,0.4,0.1,0.9,0.3,1.2c-6.7-2.2-12.2-7.2-15.2-13.5c0.3,0.1,0.7,0.2,1,0.2c1.6,0,2.9-1.3,2.9-2.9
		C57.7,92.6,56.3,91.3,54.7,91.3z"/>
</g>
</svg>
