<?xml version="1.0" encoding="utf-8"?>
<!-- Generator: Adobe Illustrator 24.2.3, SVG Export Plug-In . SVG Version: 6.00 Build 0)  -->
<svg version="1.1" id="Layer_1" xmlns="http://www.w3.org/2000/svg" xmlns:xlink="http://www.w3.org/1999/xlink" x="0px" y="0px"
	 viewBox="0 0 430 186.8" style="enable-background:new 0 0 430 186.8;" xml:space="preserve">
<style type="text/css">
	.st0{opacity:9.000000e-02;fill:url(#Rectangle_3_1_);enable-background:new    ;}
	.st1{fill:#6599FF;}
	.st2{enable-background:new    ;}
	.st3{fill:#39466B;}
</style>
<g id="Group_5109" transform="translate(-790 -491)">
	<g id="Group_5068" transform="translate(1320.2 490.733) rotate(90)">
		
			<linearGradient id="Rectangle_3_1_" gradientUnits="userSpaceOnUse" x1="642.1265" y1="1269.9205" x2="641.0795" y2="1269.9205" gradientTransform="matrix(0 -89 -136 0 172845.4531 57463.9609)">
			<stop  offset="1.246007e-07" style="stop-color:#6599FF;stop-opacity:0.7"/>
			<stop  offset="0.1377" style="stop-color:#5784DC;stop-opacity:0.6036"/>
			<stop  offset="0.2973" style="stop-color:#4A70BB;stop-opacity:0.4919"/>
			<stop  offset="0.4616" style="stop-color:#4061A1;stop-opacity:0.3769"/>
			<stop  offset="0.6302" style="stop-color:#39568F;stop-opacity:0.2588"/>
			<stop  offset="0.806" style="stop-color:#344F84;stop-opacity:0.1358"/>
			<stop  offset="1" style="stop-color:#334D80;stop-opacity:0"/>
		</linearGradient>
		
			<rect id="Rectangle_3" x="23.8" y="246.7" transform="matrix(2.535182e-06 1 -1 2.535182e-06 382.9668 246.4322)" class="st0" width="89" height="136"/>
		
			<rect id="Rectangle_12" x="90.3" y="313.2" transform="matrix(2.535182e-06 1 -1 2.535182e-06 449.4667 179.9322)" class="st1" width="89" height="3"/>
	</g>
	<g class="st2">
		<path class="st3" d="M792.2,655.6c0-1.1,0.9-2,2-2h6.4c2.1,0,3.7,0.6,4.8,1.6c0.8,0.8,1.2,1.8,1.2,3.1v0.1c0,2.1-1.1,3.2-2.4,3.9
			c2.1,0.8,3.4,2,3.4,4.5v0.1c0,3.3-2.7,5-6.8,5h-6.7c-1.1,0-2-0.9-2-2V655.6z M799.8,660.9c1.8,0,2.9-0.6,2.9-1.9V659
			c0-1.2-0.9-1.9-2.6-1.9h-4v3.8H799.8z M800.8,668.3c1.8,0,2.8-0.6,2.8-2v-0.1c0-1.2-0.9-2-3-2h-4.6v4H800.8z"/>
		<path class="st3" d="M810.7,664v-8.6c0-1.1,0.9-2,2-2c1.1,0,2,0.9,2,2v8.5c0,3,1.5,4.5,3.9,4.5c2.4,0,3.9-1.5,3.9-4.4v-8.6
			c0-1.1,0.9-2,2-2c1.1,0,2,0.9,2,2v8.4c0,5.5-3.1,8.2-8,8.2S810.7,669.3,810.7,664z"/>
		<path class="st3" d="M830.8,655.4c0-1.1,0.9-2,2-2s2,0.9,2,2v14.5c0,1.1-0.9,2-2,2s-2-0.9-2-2V655.4z"/>
		<path class="st3" d="M839.3,655.4c0-1.1,0.9-2,2-2s2,0.9,2,2v12.7h7.4c1,0,1.8,0.8,1.8,1.8c0,1-0.8,1.8-1.8,1.8h-9.4
			c-1.1,0-2-0.9-2-2V655.4z"/>
		<path class="st3" d="M855.4,655.6c0-1.1,0.9-2,2-2h5.1c5.7,0,9.7,3.9,9.7,9v0.1c0,5.1-4,9.1-9.7,9.1h-5.1c-1.1,0-2-0.9-2-2V655.6z
			 M862.5,668.2c3.3,0,5.5-2.2,5.5-5.4v-0.1c0-3.2-2.2-5.5-5.5-5.5h-3.1v11H862.5z"/>
		<path class="st3" d="M888.3,664.8l-5.9-8c-0.3-0.4-0.5-0.9-0.5-1.4c0-1.1,0.9-1.9,2-1.9c0.9,0,1.5,0.5,2,1.2l4.4,6.4l4.5-6.4
			c0.5-0.7,1.1-1.2,1.9-1.2c1.2,0,2,0.9,2,2c0,0.5-0.3,1-0.5,1.4l-5.9,7.9v5.3c0,1.1-0.9,2-2,2s-2-0.9-2-2V664.8z"/>
		<path class="st3" d="M899.7,662.7L899.7,662.7c0-5.2,4.1-9.5,9.7-9.5s9.6,4.2,9.6,9.4v0.1c0,5.2-4.1,9.4-9.7,9.4
			S899.7,667.9,899.7,662.7z M914.9,662.7L914.9,662.7c0-3.2-2.3-5.8-5.5-5.8s-5.5,2.5-5.5,5.7v0.1c0,3.1,2.3,5.7,5.5,5.7
			C912.7,668.4,914.9,665.9,914.9,662.7z"/>
		<path class="st3" d="M922.4,664v-8.6c0-1.1,0.9-2,2-2c1.1,0,2,0.9,2,2v8.5c0,3,1.5,4.5,3.9,4.5c2.4,0,3.9-1.5,3.9-4.4v-8.6
			c0-1.1,0.9-2,2-2c1.1,0,2,0.9,2,2v8.4c0,5.5-3.1,8.2-8,8.2S922.4,669.3,922.4,664z"/>
		<path class="st3" d="M942.3,655.6c0-1.1,0.9-2,2-2h6.3c2.3,0,4.1,0.7,5.3,1.8c1,1,1.6,2.4,1.6,4.2v0.1c0,2.9-1.4,4.6-3.6,5.5
			l2.8,3.4c0.4,0.5,0.6,0.9,0.6,1.5c0,1.1-0.9,1.8-1.9,1.8c-0.9,0-1.5-0.4-2-1l-3.9-4.9h-3.2v4c0,1.1-0.9,2-2,2s-2-0.9-2-2V655.6z
			 M950.4,662.4c1.9,0,3.1-1,3.1-2.6v-0.1c0-1.7-1.2-2.6-3.1-2.6h-4v5.2H950.4z"/>
		<path class="st3" d="M968.1,662.7L968.1,662.7c0-5.2,4.1-9.5,9.7-9.5s9.6,4.2,9.6,9.4v0.1c0,5.2-4.1,9.4-9.7,9.4
			S968.1,667.9,968.1,662.7z M983.3,662.7L983.3,662.7c0-3.2-2.3-5.8-5.5-5.8s-5.5,2.5-5.5,5.7v0.1c0,3.1,2.3,5.7,5.5,5.7
			C981,668.4,983.3,665.9,983.3,662.7z"/>
		<path class="st3" d="M989.3,656.1c-0.1-0.2-0.2-0.5-0.2-0.8c0-1.1,0.9-2,2.1-2c0.9,0,1.7,0.6,2,1.4l3.6,11.2l3.6-11
			c0.3-0.9,1-1.6,2-1.6h0.3c1,0,1.7,0.6,2,1.6l3.6,11l3.6-11.2c0.3-0.8,0.9-1.4,1.9-1.4c1.1,0,2,0.8,2,1.9c0,0.2-0.1,0.5-0.2,0.8
			l-5.1,14.3c-0.4,1-1.1,1.6-2.1,1.6h-0.4c-1,0-1.7-0.6-2.1-1.6l-3.6-10.4l-3.6,10.4c-0.4,1-1.1,1.6-2.1,1.6h-0.4
			c-1,0-1.7-0.6-2.1-1.6L989.3,656.1z"/>
		<path class="st3" d="M1019,655.5c0-1.1,0.9-2,2-2h0.4c1,0,1.5,0.5,2.1,1.2l7.7,10.1v-9.4c0-1.1,0.9-2,2-2s2,0.9,2,2v14.5
			c0,1.1-0.9,2-2,2h-0.1c-1,0-1.5-0.5-2.1-1.2l-8-10.5v9.8c0,1.1-0.9,2-2,2s-2-0.9-2-2V655.5z"/>
		<path class="st3" d="M1047.4,655.6c0-1.1,0.9-2,2-2h5.1c5.7,0,9.7,3.9,9.7,9v0.1c0,5.1-4,9.1-9.7,9.1h-5.1c-1.1,0-2-0.9-2-2V655.6
			z M1054.5,668.2c3.3,0,5.5-2.2,5.5-5.4v-0.1c0-3.2-2.2-5.5-5.5-5.5h-3.1v11H1054.5z"/>
		<path class="st3" d="M1065.9,669.2l6.3-14.3c0.4-1,1.2-1.6,2.3-1.6h0.2c1.1,0,1.9,0.6,2.3,1.6l6.3,14.3c0.1,0.3,0.2,0.5,0.2,0.8
			c0,1.1-0.8,1.9-1.9,1.9c-0.9,0-1.6-0.5-1.9-1.4l-1.2-2.9h-8l-1.3,3c-0.3,0.8-1,1.2-1.8,1.2c-1,0-1.8-0.8-1.8-1.9
			C1065.7,669.8,1065.8,669.5,1065.9,669.2z M1077.2,664.2l-2.5-6l-2.5,6H1077.2z"/>
		<path class="st3" d="M1086.3,669.9c-0.4-0.3-0.8-0.9-0.8-1.5c0-1,0.8-1.8,1.9-1.8c0.5,0,0.9,0.2,1.1,0.4c1.4,1,2.9,1.6,4.7,1.6
			c1.6,0,2.6-0.6,2.6-1.7v-0.1c0-1-0.6-1.5-3.7-2.3c-3.7-0.9-6-2-6-5.6v-0.1c0-3.3,2.7-5.5,6.4-5.5c2.2,0,4.1,0.6,5.8,1.6
			c0.4,0.3,0.9,0.8,0.9,1.6c0,1-0.8,1.8-1.9,1.8c-0.4,0-0.7-0.1-1-0.3c-1.3-0.8-2.6-1.2-3.8-1.2c-1.5,0-2.3,0.7-2.3,1.6v0.1
			c0,1.2,0.8,1.6,3.9,2.4c3.7,1,5.8,2.3,5.8,5.5v0.1c0,3.6-2.8,5.6-6.7,5.6C1090.8,672.1,1088.4,671.3,1086.3,669.9z"/>
		<path class="st3" d="M1103.3,655.4c0-1.1,0.9-2,2-2c1.1,0,2,0.9,2,2v5.4h7.4v-5.4c0-1.1,0.9-2,2-2c1.1,0,2,0.9,2,2v14.5
			c0,1.1-0.9,2-2,2c-1.1,0-2-0.9-2-2v-5.5h-7.4v5.5c0,1.1-0.9,2-2,2c-1.1,0-2-0.9-2-2V655.4z"/>
		<path class="st3" d="M1123.1,655.6c0-1.1,0.9-2,2-2h6.4c2.1,0,3.7,0.6,4.8,1.6c0.8,0.8,1.2,1.8,1.2,3.1v0.1c0,2.1-1.1,3.2-2.4,3.9
			c2.1,0.8,3.4,2,3.4,4.5v0.1c0,3.3-2.7,5-6.8,5h-6.7c-1.1,0-2-0.9-2-2V655.6z M1130.7,660.9c1.8,0,2.9-0.6,2.9-1.9V659
			c0-1.2-0.9-1.9-2.6-1.9h-4v3.8H1130.7z M1131.8,668.3c1.8,0,2.8-0.6,2.8-2v-0.1c0-1.2-0.9-2-3-2h-4.6v4H1131.8z"/>
		<path class="st3" d="M1141.1,662.7L1141.1,662.7c0-5.2,4.1-9.5,9.7-9.5s9.6,4.2,9.6,9.4v0.1c0,5.2-4.1,9.4-9.7,9.4
			C1145.1,672.1,1141.1,667.9,1141.1,662.7z M1156.2,662.7L1156.2,662.7c0-3.2-2.3-5.8-5.5-5.8c-3.2,0-5.5,2.5-5.5,5.7v0.1
			c0,3.1,2.3,5.7,5.5,5.7C1154,668.4,1156.2,665.9,1156.2,662.7z"/>
		<path class="st3" d="M1162.3,669.2l6.3-14.3c0.4-1,1.2-1.6,2.3-1.6h0.2c1.1,0,1.9,0.6,2.3,1.6l6.3,14.3c0.1,0.3,0.2,0.5,0.2,0.8
			c0,1.1-0.8,1.9-1.9,1.9c-0.9,0-1.6-0.5-1.9-1.4l-1.2-2.9h-8l-1.3,3c-0.3,0.8-1,1.2-1.8,1.2c-1,0-1.8-0.8-1.8-1.9
			C1162.1,669.8,1162.2,669.5,1162.3,669.2z M1173.6,664.2l-2.5-6l-2.5,6H1173.6z"/>
		<path class="st3" d="M1183.2,655.6c0-1.1,0.9-2,2-2h6.3c2.3,0,4.1,0.7,5.3,1.8c1,1,1.6,2.4,1.6,4.2v0.1c0,2.9-1.4,4.6-3.6,5.5
			l2.8,3.4c0.4,0.5,0.6,0.9,0.6,1.5c0,1.1-0.9,1.8-1.9,1.8c-0.9,0-1.5-0.4-2-1l-3.9-4.9h-3.2v4c0,1.1-0.9,2-2,2c-1.1,0-2-0.9-2-2
			V655.6z M1191.3,662.4c2,0,3.1-1,3.1-2.6v-0.1c0-1.7-1.2-2.6-3.1-2.6h-4v5.2H1191.3z"/>
		<path class="st3" d="M1202,655.6c0-1.1,0.9-2,2-2h5.1c5.7,0,9.7,3.9,9.7,9v0.1c0,5.1-4,9.1-9.7,9.1h-5.1c-1.1,0-2-0.9-2-2V655.6z
			 M1209.1,668.2c3.3,0,5.5-2.2,5.5-5.4v-0.1c0-3.2-2.2-5.5-5.5-5.5h-3.1v11H1209.1z"/>
	</g>
	<g id="vector_1_" transform="translate(960 523)">
		<g id="Group_13">
			<g id="Group_12">
				<path id="Path_16" class="st1" d="M86.6,0H76.1c-1.4,0-2.6,1.2-2.6,2.6v2.6H52C50.5,1.1,46.1-1,42,0.4c-2.2,0.8-4,2.5-4.8,4.8
					H15.7V2.6c0-1.4-1.2-2.6-2.6-2.6c0,0,0,0,0,0H2.6C1.2,0,0,1.2,0,2.6c0,0,0,0,0,0v10.5c0,1.4,1.2,2.6,2.6,2.6l0,0h10.5
					c1.4,0,2.6-1.2,2.6-2.6l0,0v-2.6h10.9c-9.3,5.9-15.1,15.8-15.8,26.8c-4.1,1.4-6.3,5.9-4.9,10s5.9,6.3,10,4.9
					c4.1-1.4,6.3-5.9,4.9-10c-0.8-2.2-2.5-4-4.7-4.8c1-12.4,9.7-22.7,21.6-25.9c1.9,3.9,6.6,5.5,10.5,3.5c1.5-0.8,2.8-2,3.5-3.5
					c12,3.2,20.7,13.6,21.6,25.9c-4.1,1.5-6.2,6-4.7,10.1c1.5,4.1,6,6.2,10.1,4.7s6.2-6,4.7-10.1c-0.8-2.2-2.6-4-4.8-4.7
					c-0.7-10.9-6.6-20.9-15.8-26.7h10.9v2.6c0,1.4,1.2,2.6,2.6,2.6h10.5c1.4,0,2.6-1.2,2.6-2.6V2.6C89.2,1.2,88,0,86.6,0z
					 M10.5,10.5H5.2V5.2h5.2V10.5z M13.2,47.2c-1.4,0-2.6-1.2-2.6-2.6c0-1.4,1.2-2.6,2.6-2.6c1.4,0,2.6,1.2,2.6,2.6c0,0,0,0,0,0
					C15.8,46,14.7,47.2,13.2,47.2z M44.6,10.5c-1.4,0-2.6-1.2-2.6-2.6c0-1.4,1.2-2.6,2.6-2.6c1.4,0,2.6,1.2,2.6,2.6c0,0,0,0,0,0
					C47.2,9.3,46,10.5,44.6,10.5z M76,42c1.4,0,2.6,1.2,2.6,2.6s-1.2,2.6-2.6,2.6c-1.4,0-2.6-1.2-2.6-2.6C73.3,43.2,74.5,42,76,42z
					 M84,10.5h-5.2V5.2H84L84,10.5z"/>
			</g>
		</g>
		<g id="Group_15" transform="translate(21.079 21.08)">
			<g id="Group_14">
				<path id="Path_17" class="st3" d="M46.6,32.5L25.7,1.2l0,0l0,0c0-0.1-0.1-0.1-0.1-0.2c-0.9-1.1-2.5-1.3-3.7-0.4
					c-0.2,0.2-0.4,0.3-0.5,0.5l0,0l0,0L0.5,32.5c-0.7,1-0.6,2.4,0.3,3.3c5.2,5.2,8.5,12,9.4,19.3c-0.4,0.3-0.8,0.7-1.2,1.1
					c-2.4,2.5-3.8,5.8-3.8,9.3c0,1.4,1.2,2.6,2.6,2.6h0h31.3c1.4,0,2.6-1.2,2.6-2.6v0c0-3.5-1.4-6.8-3.8-9.3
					c-0.4-0.4-0.8-0.7-1.2-1.1c0.9-7.3,4.2-14.1,9.4-19.3C47.1,34.9,47.3,33.6,46.6,32.5z M23.5,31.4c1.4,0,2.6,1.2,2.6,2.6
					s-1.2,2.6-2.6,2.6s-2.6-1.2-2.6-2.6C20.9,32.5,22.1,31.4,23.5,31.4L23.5,31.4z M10.9,62.9c1.1-3.2,4-5.3,7.4-5.4h10.5
					c3.4,0.1,6.3,2.2,7.4,5.4H10.9z M31.9,52.7c-1-0.3-2.1-0.4-3.2-0.4H18.3c-1.1,0-2.1,0.1-3.2,0.4c-1.2-7.1-4.4-13.6-9.2-19
					l15-22.4v15.3c-4.1,1.4-6.2,5.9-4.8,10s5.9,6.2,10,4.8c4.1-1.4,6.2-5.9,4.8-10c-0.8-2.2-2.5-4-4.8-4.8V11.2l15,22.4
					C36.3,39,33.1,45.6,31.9,52.7L31.9,52.7z"/>
			</g>
		</g>
	</g>
</g>
</svg>
