<svg xmlns="http://www.w3.org/2000/svg" xmlns:xlink="http://www.w3.org/1999/xlink" width="430" height="186.792" viewBox="0 0 430 186.792">
  <defs>
    <linearGradient id="linear-gradient" x1="1" y1="0.5" x2="-0.047" y2="0.5" gradientUnits="objectBoundingBox">
      <stop offset="0" stop-color="#6599ff"/>
      <stop offset="1" stop-color="#334d80" stop-opacity="0"/>
    </linearGradient>
  </defs>
  <g id="Group_5109" data-name="Group 5109" transform="translate(-790 -491)">
    <g id="Group_5068" data-name="Group 5068" transform="translate(1320.2 490.733) rotate(90)">
      <rect id="Rectangle_3" data-name="Rectangle 3" width="136" height="89" transform="translate(0.267 270.2)" opacity="0.12" fill="url(#linear-gradient)"/>
      <rect id="Rectangle_12" data-name="Rectangle 12" width="3" height="89" transform="translate(133.267 270.2)" fill="#6599ff"/>
    </g>
    <text id="build_your_own_dashboard" data-name="build your own dashboard" transform="translate(790 671.792)" fill="#e6eef5" font-size="26" font-family="GothamRounded-Medium, Gotham Rounded" font-weight="500"><tspan x="0" y="0">BUILD YOUR OWN DASHBOARD</tspan></text>
    <g id="vector_1_" data-name="vector (1)" transform="translate(960 523)">
      <g id="Group_13" data-name="Group 13">
        <g id="Group_12" data-name="Group 12">
          <path id="Path_16" data-name="Path 16" d="M86.579,0H76.127a2.613,2.613,0,0,0-2.613,2.613V5.226H51.986a7.838,7.838,0,0,0-14.779,0H15.678V2.613A2.613,2.613,0,0,0,13.065,0H2.613A2.613,2.613,0,0,0,0,2.613V13.065a2.613,2.613,0,0,0,2.613,2.613H13.065a2.613,2.613,0,0,0,2.613-2.613V10.417H26.545A34.33,34.33,0,0,0,10.7,37.182a7.836,7.836,0,1,0,5.237.052A29.177,29.177,0,0,1,37.575,11.32a7.835,7.835,0,0,0,14.042,0A29.176,29.176,0,0,1,73.258,37.234a7.842,7.842,0,1,0,5.237-.052,34.269,34.269,0,0,0-15.847-26.73H73.514v2.613a2.613,2.613,0,0,0,2.613,2.613H86.579a2.613,2.613,0,0,0,2.613-2.613V2.613A2.613,2.613,0,0,0,86.579,0ZM10.452,10.452H5.226V5.226h5.226Zm2.787,36.757A2.613,2.613,0,1,1,15.853,44.6,2.616,2.616,0,0,1,13.239,47.209ZM44.6,10.452a2.613,2.613,0,1,1,2.613-2.613A2.616,2.616,0,0,1,44.6,10.452ZM75.953,41.983A2.613,2.613,0,1,1,73.34,44.6,2.616,2.616,0,0,1,75.953,41.983Zm8.013-31.531H78.74V5.226h5.226Z" fill="#6599ff"/>
        </g>
      </g>
      <g id="Group_15" data-name="Group 15" transform="translate(21.079 21.08)">
        <g id="Group_14" data-name="Group 14">
          <path id="Path_17" data-name="Path 17" d="M167.6,153.529l-20.9-31.356,0,0-.023-.033c-.036-.052-.074-.1-.113-.151a2.613,2.613,0,0,0-4.184.151l-.023.033,0,0-20.9,31.357a2.613,2.613,0,0,0,.326,3.3,33.106,33.106,0,0,1,9.436,19.319,13.455,13.455,0,0,0-1.169,1.059,13.245,13.245,0,0,0-3.806,9.3,2.613,2.613,0,0,0,2.613,2.613H160.2a2.613,2.613,0,0,0,2.613-2.613A13.245,13.245,0,0,0,159,177.2a13.465,13.465,0,0,0-1.169-1.059,33.1,33.1,0,0,1,9.435-19.319A2.613,2.613,0,0,0,167.6,153.529Zm-23.078-1.163a2.613,2.613,0,1,1-2.613,2.613A2.616,2.616,0,0,1,144.518,152.365ZM131.9,183.9a7.982,7.982,0,0,1,7.394-5.4h10.452a7.982,7.982,0,0,1,7.394,5.4Zm21.024-10.229a12.837,12.837,0,0,0-3.178-.4H139.291a12.827,12.827,0,0,0-3.178.4,38.345,38.345,0,0,0-9.172-18.971L141.9,132.252v15.337a7.839,7.839,0,1,0,5.226,0V132.252L162.094,154.7A38.338,38.338,0,0,0,152.922,173.667Z" transform="translate(-121 -121.01)" fill="#e6eef5"/>
        </g>
      </g>
    </g>
  </g>
</svg>
