<?xml version="1.0" encoding="utf-8"?>
<!-- Generator: Adobe Illustrator 24.3.0, SVG Export Plug-In . SVG Version: 6.00 Build 0)  -->
<svg version="1.1" id="Layer_1" xmlns="http://www.w3.org/2000/svg" xmlns:xlink="http://www.w3.org/1999/xlink" x="0px" y="0px"
	 viewBox="0 0 35.7 32.7" style="enable-background:new 0 0 35.7 32.7;" xml:space="preserve">
<style type="text/css">
	.st0{fill:#6599FF;}
</style>
<g id="web-programming" transform="translate(0 -1)">
	<path id="Path_3" class="st0" d="M31.6,33.7H4.1c-2.3,0-4.1-1.8-4.1-4.1V5.1C0,2.8,1.8,1,4.1,1h27.5c2.3,0,4.1,1.8,4.1,4.1v24.5
		C35.7,31.9,33.9,33.7,31.6,33.7z M4.1,3.2c-1,0-1.9,0.8-1.9,1.9v24.5c0,1,0.8,1.9,1.9,1.9h27.5c1,0,1.9-0.8,1.9-1.9V5.1
		c0-1-0.8-1.9-1.9-1.9C31.6,3.2,4.1,3.2,4.1,3.2z"/>
	<path id="Path_4" class="st0" d="M34.6,8.7H1.1C0.5,8.7,0,8.1,0,7.4s0.5-1.2,1.1-1.3h33.5c0.7,0,1.2,0.6,1.1,1.3
		C35.7,8.1,35.2,8.7,34.6,8.7z"/>
	<path id="Path_4_1_" class="st0" d="M16.6,31.8V7.6c0-0.5,0.6-0.8,1.3-0.8c0.7,0,1.2,0.3,1.3,0.8v24.2c0,0.5-0.6,0.8-1.3,0.8
		C17.2,32.7,16.6,32.3,16.6,31.8z"/>
</g>
</svg>
