<svg xmlns="http://www.w3.org/2000/svg" width="35.69" height="32.716" viewBox="0 0 35.69 32.716">
  <g id="web-programming" transform="translate(0 -1)">
    <path id="Path_3" data-name="Path 3" d="M31.6,33.716H4.089A4.093,4.093,0,0,1,0,29.626V5.089A4.093,4.093,0,0,1,4.089,1H31.6A4.093,4.093,0,0,1,35.69,5.089V29.626A4.093,4.093,0,0,1,31.6,33.716ZM4.089,3.231A1.861,1.861,0,0,0,2.231,5.089V29.626a1.861,1.861,0,0,0,1.859,1.859H31.6a1.861,1.861,0,0,0,1.859-1.859V5.089A1.861,1.861,0,0,0,31.6,3.231Z" transform="translate(0 0)" fill="#e6eef5"/>
    <path id="Path_4" data-name="Path 4" d="M34.575,7.058H1.115A1.206,1.206,0,0,1,0,5.779,1.206,1.206,0,0,1,1.115,4.5H34.575A1.206,1.206,0,0,1,35.69,5.779,1.206,1.206,0,0,1,34.575,7.058Z" transform="translate(0 1.649)" fill="#e6eef5"/>
  </g>
</svg>
