<?xml version="1.0" encoding="utf-8"?>
<!-- Generator: Adobe Illustrator 24.2.3, SVG Export Plug-In . SVG Version: 6.00 Build 0)  -->
<svg version="1.1" id="Layer_1" xmlns="http://www.w3.org/2000/svg" xmlns:xlink="http://www.w3.org/1999/xlink" x="0px" y="0px"
	 viewBox="0 0 24 24" style="enable-background:new 0 0 24 24;" xml:space="preserve">
<style type="text/css">
	.st0{fill:none;stroke:#39466B;stroke-miterlimit:10;}
	.st1{fill:none;stroke:#39466B;}
</style>
<g id="Group_5082" transform="translate(-154 -113)">
	<g id="Rectangle_53" transform="translate(154 113)">
		<path class="st0" d="M2.5,0.5h6c1.1,0,2,0.9,2,2v6c0,1.1-0.9,2-2,2h-6c-1.1,0-2-0.9-2-2v-6C0.5,1.4,1.4,0.5,2.5,0.5z"/>
		<path class="st1" d="M2.5,1h6C9.3,1,10,1.7,10,2.5v6C10,9.3,9.3,10,8.5,10h-6C1.7,10,1,9.3,1,8.5v-6C1,1.7,1.7,1,2.5,1z"/>
	</g>
	<g id="Rectangle_54" transform="translate(167 113)">
		<path class="st0" d="M2.5,0.5h6c1.1,0,2,0.9,2,2v6c0,1.1-0.9,2-2,2h-6c-1.1,0-2-0.9-2-2v-6C0.5,1.4,1.4,0.5,2.5,0.5z"/>
		<path class="st1" d="M2.5,1h6C9.3,1,10,1.7,10,2.5v6C10,9.3,9.3,10,8.5,10h-6C1.7,10,1,9.3,1,8.5v-6C1,1.7,1.7,1,2.5,1z"/>
	</g>
	<g id="Rectangle_55" transform="translate(154 126)">
		<path class="st0" d="M2.5,0.5h6c1.1,0,2,0.9,2,2v6c0,1.1-0.9,2-2,2h-6c-1.1,0-2-0.9-2-2v-6C0.5,1.4,1.4,0.5,2.5,0.5z"/>
		<path class="st1" d="M2.5,1h6C9.3,1,10,1.7,10,2.5v6C10,9.3,9.3,10,8.5,10h-6C1.7,10,1,9.3,1,8.5v-6C1,1.7,1.7,1,2.5,1z"/>
	</g>
	<g id="Rectangle_56" transform="translate(167 126)">
		<path class="st0" d="M2.5,0.5h6c1.1,0,2,0.9,2,2v6c0,1.1-0.9,2-2,2h-6c-1.1,0-2-0.9-2-2v-6C0.5,1.4,1.4,0.5,2.5,0.5z"/>
		<path class="st1" d="M2.5,1h6C9.3,1,10,1.7,10,2.5v6C10,9.3,9.3,10,8.5,10h-6C1.7,10,1,9.3,1,8.5v-6C1,1.7,1.7,1,2.5,1z"/>
	</g>
</g>
</svg>
