<?xml version="1.0" encoding="utf-8"?>
<!-- Generator: Adobe Illustrator 24.3.0, SVG Export Plug-In . SVG Version: 6.00 Build 0)  -->
<svg version="1.1" id="Layer_1" xmlns="http://www.w3.org/2000/svg" xmlns:xlink="http://www.w3.org/1999/xlink" x="0px" y="0px"
	 viewBox="0 0 134.2 134.2" style="enable-background:new 0 0 134.2 134.2;" xml:space="preserve">
<style type="text/css">
	.st0{fill:#6599FF;}
	.st1{fill:#FAFAFA;}
</style>
<g id="Group_5091" transform="translate(-20909 -1187.801)">
	<path id="Path_2419" class="st0" d="M20976.1,1189.8c-36,0-65.1,29.1-65.1,65.1s29.1,65.1,65.1,65.1c36,0,65.1-29.1,65.1-65.1
		C21041.2,1219,21012,1189.8,20976.1,1189.8z"/>
	<path id="Path_2420" class="st1" d="M21009.1,1241.1l-35.3,35.3c-2.1,2.1-5.5,2.1-7.7,0c0,0,0,0,0,0l-17.6-17.6
		c-2.1-2.1-2.1-5.6,0-7.7s5.6-2.1,7.7,0l0,0l13.8,13.8l31.4-31.4c2.1-2.1,5.6-2.1,7.7,0C21011.2,1235.6,21011.2,1239,21009.1,1241.1
		L21009.1,1241.1z"/>
</g>
</svg>
