<svg id="column" xmlns="http://www.w3.org/2000/svg" width="35.69" height="35.69" viewBox="0 0 35.69 35.69">
  <g id="Group_9" data-name="Group 9" transform="translate(0 0)">
    <path id="Path_9" data-name="Path 9" d="M34.526,33.362h-1.94V8.922a3.491,3.491,0,1,0-6.983,0v8.347a3.49,3.49,0,0,0-4.655,3.291v12.8H16.293V13.578a3.491,3.491,0,1,0-6.983,0v8.347a3.49,3.49,0,0,0-4.655,3.291v8.147H2.328V1.164A1.164,1.164,0,1,0,0,1.164V34.526A1.164,1.164,0,0,0,1.164,35.69H34.526a1.164,1.164,0,1,0,0-2.328Zm-25.216,0H6.983V25.216a1.164,1.164,0,0,1,2.328,0v8.147Zm4.655,0H11.638V13.578a1.164,1.164,0,1,1,2.328,0V33.362Zm11.638,0H23.276v-12.8a1.164,1.164,0,0,1,2.328,0v12.8Zm4.655,0H27.931V8.922a1.164,1.164,0,1,1,2.328,0v24.44Z" transform="translate(0 0)" fill="#e6eef5"/>
  </g>
</svg>
