<svg height='300px' width='300px'  fill="#e6eef5" xmlns="http://www.w3.org/2000/svg" xmlns:xlink="http://www.w3.org/1999/xlink" version="1.1" x="0px" y="0px" viewBox="0 0 66 66" enable-background="new 0 0 66 66" xml:space="preserve"><g><path d="M64,56.1h-1.6V36.3c0-0.6-0.4-1-1-1h-8.8c-0.6,0-1,0.4-1,1v19.7h-3.3V25.6c0-0.6-0.4-1-1-1h-8.8c-0.6,0-1,0.4-1,1v30.5   h-3.3V38.5c0-0.6-0.4-1-1-1h-8.8c-0.6,0-1,0.4-1,1v17.5h-3.3V31.2c0-0.6-0.4-1-1-1h-8.8c-0.6,0-1,0.4-1,1v24.8H5.9V6   c0-0.6-0.4-1-1-1s-1,0.4-1,1v3.2H2c-0.6,0-1,0.4-1,1s0.4,1,1,1h1.9v5.1H2c-0.6,0-1,0.4-1,1s0.4,1,1,1h1.9v5.1H2c-0.6,0-1,0.4-1,1   s0.4,1,1,1h1.9v5.1H2c-0.6,0-1,0.4-1,1s0.4,1,1,1h1.9v5.1H2c-0.6,0-1,0.4-1,1s0.4,1,1,1h1.9v5.1H2c-0.6,0-1,0.4-1,1s0.4,1,1,1h1.9   v5.1H2c-0.6,0-1,0.4-1,1s0.4,1,1,1h1.9v3.2c0,0.6,0.4,1,1,1h5V60c0,0.6,0.4,1,1,1s1-0.4,1-1v-1.9h5.1V60c0,0.6,0.4,1,1,1s1-0.4,1-1   v-1.9h0.2h5V60c0,0.6,0.4,1,1,1s1-0.4,1-1v-1.9h5.1V60c0,0.6,0.4,1,1,1s1-0.4,1-1v-1.9h5.1V60c0,0.6,0.4,1,1,1s1-0.4,1-1v-1.9h5.1   V60c0,0.6,0.4,1,1,1s1-0.4,1-1v-1.9h5.1h0.1V60c0,0.6,0.4,1,1,1s1-0.4,1-1v-1.9h6.7H64c0.6,0,1-0.4,1-1S64.6,56.1,64,56.1z    M39.5,26.6h6.8v29.5h-6.8V26.6z M25.5,39.5h6.8v16.5h-6.8V39.5z M11.4,32.2h6.8v23.8h-6.8V32.2z M53.6,56.1V37.3h6.8v18.7H53.6z"></path><path d="M14.8,19.3c0.9,0,1.7-0.3,2.3-0.8l8.4,5.8c-0.1,0.4-0.2,0.8-0.2,1.2c0,2,1.6,3.6,3.6,3.6s3.6-1.6,3.6-3.6   c0-0.6-0.2-1.2-0.5-1.7l9.1-9.1c0.5,0.3,1.1,0.5,1.8,0.5c0.9,0,1.7-0.3,2.3-0.8l8.3,5.8c-0.1,0.4-0.2,0.8-0.2,1.2   c0,2,1.6,3.6,3.6,3.6s3.6-1.6,3.6-3.6S59,17.6,57,17.6c-0.9,0-1.7,0.3-2.3,0.8l-8.3-5.8c0.1-0.4,0.2-0.8,0.2-1.2   c0-2-1.6-3.6-3.6-3.6s-3.6,1.6-3.6,3.6c0,0.6,0.2,1.2,0.5,1.7l-9.1,9.1c-0.5-0.3-1.1-0.5-1.8-0.5c-0.9,0-1.7,0.3-2.3,0.8l-8.4-5.8   c0.1-0.4,0.2-0.8,0.2-1.2c0-2-1.6-3.6-3.6-3.6s-3.6,1.6-3.6,3.6S12.8,19.3,14.8,19.3z M57,19.6c0.9,0,1.6,0.7,1.6,1.6   s-0.7,1.6-1.6,1.6c-0.9,0-1.6-0.7-1.6-1.6S56.1,19.6,57,19.6z M43,9.8c0.9,0,1.6,0.7,1.6,1.6s-0.7,1.6-1.6,1.6   c-0.9,0-1.6-0.7-1.6-1.6S42,9.8,43,9.8z M28.9,23.8c0.9,0,1.6,0.7,1.6,1.6s-0.7,1.6-1.6,1.6c-0.9,0-1.6-0.7-1.6-1.6   S28,23.8,28.9,23.8z M14.8,14c0.9,0,1.6,0.7,1.6,1.6s-0.7,1.6-1.6,1.6s-1.6-0.7-1.6-1.6S13.9,14,14.8,14z"></path></g></svg>