<svg xmlns="http://www.w3.org/2000/svg" width="33" height="33" viewBox="0 0 33 33">
  <g id="Group_5111" data-name="Group 5111" transform="translate(-1314 -884)">
    <circle id="Ellipse_5" data-name="Ellipse 5" cx="16.5" cy="16.5" r="16.5" transform="translate(1314 884)" fill="#ea9b3f" opacity="0.17"/>
    <path id="pen_1_" data-name="pen (1)" d="M15.711.685a2.444,2.444,0,0,0-3.454,0l-.865.869-9.2,9.2-.02.02s0,.01-.01.01-.024.029-.034.044-.005,0-.005.01-.015.024-.024.039,0,.01-.01.015-.01.024-.015.039,0,0,0,.01L.025,17.08a.481.481,0,0,0,.117.5.492.492,0,0,0,.347.142A.576.576,0,0,0,.645,17.7l6.136-2.047s0,0,.01,0a.177.177,0,0,0,.044-.02.017.017,0,0,0,.01,0l.049-.029c.015-.01.029-.024.044-.034s.01-.005.01-.01.015-.01.02-.02L17.035,5.458a2.444,2.444,0,0,0,0-3.454ZM6.625,14.5l-3.4-3.4,8.51-8.51,3.4,3.4ZM2.746,12l2.97,2.97-4.46,1.485Zm13.6-7.23-.518.523-3.4-3.4.523-.523a1.465,1.465,0,0,1,2.071,0L16.351,2.7a1.47,1.47,0,0,1,0,2.071Zm0,0" transform="translate(1322.001 892.029)" fill="#ea9b3f"/>
  </g>
</svg>
