<svg height='300px' width='300px'  fill="#e6eef5" xmlns="http://www.w3.org/2000/svg" viewBox="0 0 64 64" x="0px" y="0px"><title>filter, filters</title><g><path d="M58.37,11.3a7.05,7.05,0,0,0-6.62-4.43H12.25A7.15,7.15,0,0,0,7.1,19L24.18,36.76V55.63a1.49,1.49,0,0,0,.65,1.23,1.46,1.46,0,0,0,.85.27,1.6,1.6,0,0,0,.53-.09l11.84-4.43a1.5,1.5,0,0,0,1-1.41V36.82L56.8,19.1A7.06,7.06,0,0,0,58.37,11.3ZM54.68,17h0L36.47,35.13A1.5,1.5,0,0,0,36,36.19v14l-8.85,3.31V36.16a1.49,1.49,0,0,0-.42-1L9.26,16.9a4.15,4.15,0,0,1,3-7h39.5A4.15,4.15,0,0,1,54.68,17Z"></path></g></svg>