<svg height='300px' width='300px'  fill="#e6eef5" xmlns="http://www.w3.org/2000/svg" viewBox="0 0 68 60" x="0px" y="0px"><path fill="#e6eef5" d="M216,582 L238,582 C239.104569,582 240,582.895431 240,584 L240,592 C240,593.104569 239.104569,594 238,594 L216,594 C214.895431,594 214,593.104569 214,592 L214,584 C214,582.895431 214.895431,582 216,582 Z M218,586 L218,590 L236,590 L236,586 L218,586 Z M203,566 L223,566 C224.104569,566 225,566.895431 225,568 L225,576 C225,577.104569 224.104569,578 223,578 L203,578 C201.895431,578 201,577.104569 201,576 L201,568 C201,566.895431 201.895431,566 203,566 Z M205,570 L205,574 L221,574 L221,570 L205,570 Z M190,550 L206,550 C207.104569,550 208,550.895431 208,552 L208,560 C208,561.104569 207.104569,562 206,562 L190,562 C188.895431,562 188,561.104569 188,560 L188,552 C188,550.895431 188.895431,550 190,550 Z M192,554 L192,558 L204,558 L204,554 L192,554 Z M180,600 L242,600 C243.104569,600 244,600.895431 244,602 C244,603.104569 243.104569,604 242,604 L178,604 C176.895431,604 176,603.104569 176,602 L176,546 C176,544.895431 176.895431,544 178,544 C179.104569,544 180,544.895431 180,546 L180,600 Z" transform="translate(-176 -544)"></path></svg>