<svg xmlns="http://www.w3.org/2000/svg" xmlns:xlink="http://www.w3.org/1999/xlink" width="200" height="249" viewBox="0 0 200 249">
  <defs>
    <clipPath id="clip-path">
      <rect id="Rectangle_158" data-name="Rectangle 158" width="200" height="249" transform="translate(4776 2744)" fill="none" stroke="#707070" stroke-width="1"/>
    </clipPath>
    <clipPath id="clip-path-2">
      <path id="Path_62" data-name="Path 62" d="M-65.268-89.815V-188A122.732,122.732,0,0,1,48.121-112.236a122.732,122.732,0,0,1-26.6,133.752,122.732,122.732,0,0,1-133.752,26.6A122.732,122.732,0,0,1-188-65.268h98.185A24.546,24.546,0,0,0-74.662-42.591a24.546,24.546,0,0,0,26.75-5.321,24.546,24.546,0,0,0,5.321-26.75A24.546,24.546,0,0,0-65.268-89.815h0" transform="translate(188 188)" fill="#e6eef5"/>
    </clipPath>
  </defs>
  <g id="Mask_Group_9" data-name="Mask Group 9" transform="translate(-4776 -2744)" clip-path="url(#clip-path)">
    <g id="Group_206" data-name="Group 206" transform="translate(4696 2724.528)">
      <g id="Group_205" data-name="Group 205">
        <g id="Group_204" data-name="Group 204">
          <g id="Group_203" data-name="Group 203">
            <g id="Group_202" data-name="Group 202">
              <g id="Group_201" data-name="Group 201" transform="translate(0 0)">
                <g id="Group_200" data-name="Group 200">
                  <g id="Group_194" data-name="Group 194">
                    <g id="Group_193" data-name="Group 193">
                      <g id="Group_92" data-name="Group 92" transform="translate(31.009 21.472)">
                        <g id="Group_91" data-name="Group 91">
                          <g id="Group_89" data-name="Group 89">
                            <g id="Group_88" data-name="Group 88">
                              <g id="Group_79" data-name="Group 79">
                                <g id="Group_78" data-name="Group 78">
                                  <g id="Group_73" data-name="Group 73" transform="translate(98.185 98.185)">
                                    <path id="Path_39" data-name="Path 39" d="M-13.054-37.6A24.546,24.546,0,0,1,9.624-22.447,24.546,24.546,0,0,1,4.3,4.3a24.546,24.546,0,0,1-26.75,5.321A24.546,24.546,0,0,1-37.6-13.054" transform="translate(37.6 37.6)" fill="none" stroke="rgba(0,0,0,0)" stroke-width="1"/>
                                  </g>
                                  <g id="Group_74" data-name="Group 74" transform="translate(73.639 73.639)">
                                    <path id="Path_40" data-name="Path 40" d="M-26.107-75.2A49.093,49.093,0,0,1,19.248-44.895,49.093,49.093,0,0,1,8.606,8.606a49.093,49.093,0,0,1-53.5,10.642A49.093,49.093,0,0,1-75.2-26.108" transform="translate(75.2 75.2)" fill="none" stroke="rgba(0,0,0,0)" stroke-width="1"/>
                                  </g>
                                  <g id="Group_75" data-name="Group 75" transform="translate(49.092 49.093)">
                                    <path id="Path_41" data-name="Path 41" d="M-39.161-112.8A73.639,73.639,0,0,1,28.873-67.341,73.639,73.639,0,0,1,12.909,12.91,73.639,73.639,0,0,1-67.342,28.873,73.639,73.639,0,0,1-112.8-39.161" transform="translate(112.8 112.8)" fill="none" stroke="rgba(0,0,0,0)" stroke-width="1"/>
                                  </g>
                                  <g id="Group_76" data-name="Group 76" transform="translate(24.546 24.546)">
                                    <path id="Path_42" data-name="Path 42" d="M-52.215-150.4A98.185,98.185,0,0,1,38.5-89.788a98.185,98.185,0,0,1-21.284,107,98.185,98.185,0,0,1-107,21.284A98.185,98.185,0,0,1-150.4-52.215" transform="translate(150.4 150.4)" fill="none" stroke="rgba(0,0,0,0)" stroke-width="1"/>
                                  </g>
                                  <g id="Group_77" data-name="Group 77">
                                    <path id="Path_43" data-name="Path 43" d="M-65.268-188A122.732,122.732,0,0,1,48.121-112.236a122.732,122.732,0,0,1-26.6,133.752,122.732,122.732,0,0,1-133.752,26.6A122.732,122.732,0,0,1-188-65.268" transform="translate(188 188)" fill="none" stroke="rgba(0,0,0,0)" stroke-width="1"/>
                                  </g>
                                </g>
                              </g>
                            </g>
                          </g>
                        </g>
                      </g>
                      <g id="Group_136" data-name="Group 136">
                        <g id="Group_135" data-name="Group 135">
                          <g id="Group_131" data-name="Group 131">
                            <g id="Group_130" data-name="Group 130">
                              <g id="Group_105" data-name="Group 105" transform="translate(31.336 21.798)">
                                <g id="Group_104" data-name="Group 104">
                                  <g id="Group_93" data-name="Group 93" transform="translate(122.732)">
                                    <path id="Path_45" data-name="Path 45" d="M0-89.815V-188" transform="translate(0 188)" fill="none" stroke="rgba(0,0,0,0)" stroke-width="1"/>
                                  </g>
                                  <g id="Group_94" data-name="Group 94" transform="translate(133.875 13.377)">
                                    <path id="Path_46" data-name="Path 46" d="M17.07-80.025l44.575-87.484" transform="translate(-17.07 167.509)" fill="none" stroke="rgba(0,0,0,0)" stroke-width="1"/>
                                  </g>
                                  <g id="Group_95" data-name="Group 95" transform="translate(142.59 50.592)">
                                    <path id="Path_47" data-name="Path 47" d="M30.419-52.792,109.852-110.5" transform="translate(-30.419 110.504)" fill="none" stroke="rgba(0,0,0,0)" stroke-width="1"/>
                                  </g>
                                  <g id="Group_96" data-name="Group 96" transform="translate(146.976 103.532)">
                                    <path id="Path_48" data-name="Path 48" d="M37.137-14.05l96.976-15.36" transform="translate(-37.137 29.41)" fill="none" stroke="rgba(0,0,0,0)" stroke-width="1"/>
                                  </g>
                                  <g id="Group_97" data-name="Group 97" transform="translate(146.077 130.317)">
                                    <path id="Path_49" data-name="Path 49" d="M35.76,11.619,129.14,41.96" transform="translate(-35.76 -11.619)" fill="none" stroke="rgba(0,0,0,0)" stroke-width="1"/>
                                  </g>
                                  <g id="Group_98" data-name="Group 98" transform="translate(140.088 140.088)">
                                    <path id="Path_50" data-name="Path 50" d="M26.587,26.587,96.015,96.015" transform="translate(-26.587 -26.587)" fill="none" stroke="rgba(0,0,0,0)" stroke-width="1"/>
                                  </g>
                                  <g id="Group_99" data-name="Group 99" transform="translate(130.317 146.077)">
                                    <path id="Path_51" data-name="Path 51" d="M11.619,35.76,41.96,129.14" transform="translate(-11.619 -35.76)" fill="none" stroke="rgba(0,0,0,0)" stroke-width="1"/>
                                  </g>
                                  <g id="Group_100" data-name="Group 100" transform="translate(103.532 146.976)">
                                    <path id="Path_52" data-name="Path 52" d="M-14.05,37.137l-15.36,96.976" transform="translate(29.41 -37.137)" fill="none" stroke="rgba(0,0,0,0)" stroke-width="1"/>
                                  </g>
                                  <g id="Group_101" data-name="Group 101" transform="translate(50.592 142.59)">
                                    <path id="Path_53" data-name="Path 53" d="M-52.792,30.419-110.5,109.852" transform="translate(110.504 -30.419)" fill="none" stroke="rgba(0,0,0,0)" stroke-width="1"/>
                                  </g>
                                  <g id="Group_102" data-name="Group 102" transform="translate(13.377 133.875)">
                                    <path id="Path_54" data-name="Path 54" d="M-80.025,17.07l-87.484,44.575" transform="translate(167.509 -17.07)" fill="none" stroke="rgba(0,0,0,0)" stroke-width="1"/>
                                  </g>
                                  <g id="Group_103" data-name="Group 103" transform="translate(0 122.732)">
                                    <path id="Path_55" data-name="Path 55" d="M-89.815,0H-188" transform="translate(188)" fill="none" stroke="rgba(0,0,0,0)" stroke-width="1"/>
                                  </g>
                                </g>
                              </g>
                            </g>
                          </g>
                          <g id="Group_133" data-name="Group 133" transform="translate(153.741 144.203)">
                            <path id="Path_56" data-name="Path 56" fill="none" stroke="rgba(0,0,0,0.15)" stroke-width="1"/>
                          </g>
                          <g id="Group_134" data-name="Group 134" transform="translate(31.009 21.472)">
                            <path id="Path_57" data-name="Path 57" d="M-65.268-188A122.732,122.732,0,0,1,48.121-112.236a122.732,122.732,0,0,1-26.6,133.752,122.732,122.732,0,0,1-133.752,26.6A122.732,122.732,0,0,1-188-65.268" transform="translate(188 188)" fill="none" stroke="rgba(0,0,0,0)" stroke-width="1"/>
                          </g>
                        </g>
                      </g>
                      <g id="Group_187" data-name="Group 187" transform="translate(31.336 21.798)">
                        <g id="Group_186" data-name="Group 186">
                          <g id="Group_185" data-name="Group 185">
                            <g id="Group_184" data-name="Group 184">
                              <g id="Group_5112" data-name="Group 5112">
                                <g id="Group_182" data-name="Group 182" transform="translate(37.124 2.88)">
                                  <g id="Group_181" data-name="Group 181">
                                    <g id="Group_180" data-name="Group 180">
                                      <g id="id-353" transform="translate(15.94 37.648)">
                                        <g id="Group_175" data-name="Group 175">
                                          <g id="Group_174" data-name="Group 174">
                                            <g id="Group_173" data-name="Group 173">
                                              <g id="Group_172" data-name="Group 172">
                                                <path id="Path_65" data-name="Path 65" d="M-57.773-137.871h0a8.391,8.391,0,0,1,8.38-7.962A82.012,82.012,0,0,1,16.575-98.868a82.012,82.012,0,0,1-6.517,80.716A82.012,82.012,0,0,1-62.591,17.621a82.012,82.012,0,0,1-67.952-44.046,8.391,8.391,0,0,1,4.317-10.723h0a8.931,8.931,0,0,1,11.387,4.5A65.229,65.229,0,0,0-60.746.912a65.229,65.229,0,0,0,56.923-28.5A65.229,65.229,0,0,0,1.718-91,65.229,65.229,0,0,0-49.4-128.939a8.931,8.931,0,0,1-8.374-8.931h0" transform="translate(131.133 145.833)" fill="#e6eef5"/>
                                              </g>
                                            </g>
                                          </g>
                                        </g>
                                      </g>
                                      <g id="id-377" transform="translate(78.669)">
                                        <g id="Group_179" data-name="Group 179" transform="translate(0)">
                                          <g id="Group_178" data-name="Group 178">
                                            <g id="Group_177" data-name="Group 177">
                                              <g id="Group_176" data-name="Group 176">
                                                <path id="Path_66" data-name="Path 66" d="M-3.69-174.2h0a9.792,9.792,0,0,1,9.784-9.394A120.251,120.251,0,0,1,116.5-59.96,120.251,120.251,0,0,1-1.45,56.493a9.792,9.792,0,0,1-9.175-9.99h0A10.269,10.269,0,0,1-.219,36.869,100.666,100.666,0,0,0,96.928-60.575,100.666,100.666,0,0,0,6.091-163.927,10.269,10.269,0,0,1-3.69-174.2h0" transform="translate(10.628 183.589)" fill="#e6eef5"/>
                                              </g>
                                            </g>
                                          </g>
                                        </g>
                                      </g>
                                    </g>
                                  </g>
                                </g>
                              </g>
                            </g>
                          </g>
                        </g>
                      </g>
                    </g>
                  </g>
                </g>
              </g>
            </g>
          </g>
        </g>
      </g>
    </g>
  </g>
</svg>
