<svg xmlns="http://www.w3.org/2000/svg" width="35.69" height="28.388" viewBox="0 0 35.69 28.388">
  <g id="dashboard_5_" data-name="dashboard (5)" transform="translate(0.001 -52.475)">
    <g id="Group_4737" data-name="Group 4737" transform="translate(-0.001 52.475)">
      <g id="Group_4736" data-name="Group 4736" transform="translate(0 0)">
        <path id="Path_2219" data-name="Path 2219" d="M212.7,123.906a1.4,1.4,0,0,0-1.771-.166c-2.086,1.422-12.551,8.573-13.676,9.695a4.183,4.183,0,1,0,5.916,5.916c1.124-1.125,8.275-11.588,9.695-13.676A1.4,1.4,0,0,0,212.7,123.906Zm-11.5,13.475a1.394,1.394,0,1,1-1.972-1.972c.437-.432,3.408-2.551,7.064-5.092C203.744,133.974,201.625,136.945,201.193,137.382Z" transform="translate(-182.36 -118.534)" fill="#e6eef5"/>
        <path id="Path_2220" data-name="Path 2220" d="M6.429,76.821l-1.721.84a14.988,14.988,0,0,1-.94-12.671l1.972.946a1.395,1.395,0,1,0,1.2-2.514L5,62.487a15.078,15.078,0,0,1,11.453-7.146v2.1a1.394,1.394,0,1,0,2.789,0v-2.1A14.885,14.885,0,0,1,24.035,56.6a1.394,1.394,0,1,0,1.147-2.541A17.832,17.832,0,0,0,3.024,80.243a1.394,1.394,0,0,0,1.77.478l2.859-1.394A1.394,1.394,0,1,0,6.43,76.821Z" transform="translate(0.001 -52.475)" fill="#e6eef5"/>
        <path id="Path_2221" data-name="Path 2221" d="M396.925,192.315a1.394,1.394,0,0,0-2.541,1.147,15.009,15.009,0,0,1-.6,13.524l-1.8-.856a1.394,1.394,0,1,0-1.2,2.518l2.926,1.394a1.394,1.394,0,0,0,1.758-.484,17.8,17.8,0,0,0,1.451-17.243Z" transform="translate(-362.804 -181.79)" fill="#e6eef5"/>
      </g>
    </g>
  </g>
</svg>
