<?xml version="1.0" encoding="utf-8"?>
<!-- Generator: Adobe Illustrator 24.2.3, SVG Export Plug-In . SVG Version: 6.00 Build 0)  -->
<svg version="1.1" id="Layer_1" xmlns="http://www.w3.org/2000/svg" xmlns:xlink="http://www.w3.org/1999/xlink" x="0px" y="0px"
	 viewBox="0 0 296.9 295" style="enable-background:new 0 0 296.9 295;" xml:space="preserve">
<style type="text/css">
	.st0{fill:#E6EEF5;}
</style>
<g>
	<g>
		<path class="st0" d="M291.4,270.5c0.8-0.8,1.3-1.3,2.1-2.1c2.5-2.1,3.4-5.1,3.4-7.6c0-2.5-0.8-5.1-3.4-7.6
			c-0.8-0.8-1.3-1.3-2.1-2.1C298.6,254.9,298.6,267.1,291.4,270.5z"/>
	</g>
	
		<ellipse transform="matrix(9.853768e-02 -0.9951 0.9951 9.853768e-02 -123.5069 266.8597)" class="st0" cx="85.5" cy="201.6" rx="15.2" ry="15.2"/>
	<circle class="st0" cx="158.7" cy="136.1" r="10.1"/>
	<circle class="st0" cx="95.3" cy="136.1" r="16.9"/>
	<circle class="st0" cx="229.7" cy="137.8" r="16.5"/>
	<circle class="st0" cx="158.7" cy="198.6" r="27"/>
	<circle class="st0" cx="229.7" cy="201.6" r="10.6"/>
	<circle class="st0" cx="90.6" cy="72.7" r="15.2"/>
	<circle class="st0" cx="163.7" cy="69.7" r="21.1"/>
	<circle class="st0" cx="234.7" cy="72.7" r="10.6"/>
	<g>
		<g>
			<path class="st0" d="M37.8,1.3c-2.5-0.8-5.1-0.8-7.6,0l0,0c-1.3,0.4-2.1,0.8-3,1.7c2.1-2.1,4.6-3,7.2-3
				C35.7,0.4,36.9,0.4,37.8,1.3z"/>
		</g>
		<g>
			<path class="st0" d="M41.2,3c-0.8-0.8-2.1-1.3-3-1.7c0,0,0,0-0.4,0c-2.5-0.8-5.1-0.8-7.6,0c1.3-0.8,2.5-0.8,3.8-0.8
				C36.5,0,39.1,0.8,41.2,3z"/>
		</g>
	</g>
	<g>
		<g>
			<path class="st0" d="M296.4,261.2c0,2.5-0.8,5.1-3.4,7.6c-0.8,0.8-1.3,1.3-2.1,2.1c-7.2,7.2-14.4,14.4-22,21.1
				c-9.7,9.3-24.5-5.5-14.8-14.8c1.7-1.7,3.8-3.4,5.5-5.5H36.5c-0.8,0-2.1,0-3-0.4c-5.1-0.4-10.1-3.8-10.1-10.1v-224
				c-1.7,1.7-3.4,3.8-5.5,5.5C8.6,52.4-6.6,37.6,3.1,27.9c7.6-7.6,15.2-15.6,22.4-23.2c0.4-0.4,0.4-0.4,0.8-0.8l0.4-0.4
				c0.8-0.8,2.1-1.3,3-1.7l0,0c2.5-0.8,5.1-0.8,7.6,0c0,0,0,0,0.4,0c0.8,0.4,2.1,0.8,3,1.7c0,0,0.4,0,0.4,0.4
				c0.4,0.4,0.4,0.4,0.8,0.8c7.6,7.6,15.2,15.2,22.4,23.2c9.7,9.7-5.5,24.5-14.8,14.8c-1.7-1.7-3.4-3.8-5.5-5.5V251h215.1l-5.5-5.5
				c-9.7-9.3,5.1-24.5,14.8-14.8c7.2,7.2,14.4,14.4,22,21.1c0.8,0.8,1.3,1.3,2.1,2.1C295.6,255.7,296.9,258.7,296.4,261.2z"/>
		</g>
	</g>
</g>
</svg>
