<svg height='300px' width='300px'  fill="#e6eef5" xmlns="http://www.w3.org/2000/svg" xmlns:xlink="http://www.w3.org/1999/xlink" style="isolation:isolate;" viewBox="0 0 64 64" x="0px" y="0px"><defs><clipPath id="a"><rect width="64" height="64"></rect></clipPath></defs><g clip-path="url(#a)"><path d=" M 59 62 L 5 62 C 3.344 62 2 60.656 2 59 L 2 5 C 2 3.344 3.344 2 5 2 L 59 2 C 60.656 2 62 3.344 62 5 L 62 59 C 62 60.656 60.656 62 59 62 Z  M 55 57 L 9 57 C 7.896 57 7 56.104 7 55 L 7 9 C 7 7.896 7.896 7 9 7 L 55 7 C 56.104 7 57 7.896 57 9 L 57 55 C 57 56.104 56.104 57 55 57 Z " fill-rule="evenodd" fill="#e6eef5"></path><path d=" M 39.66 44.91 C 39.19 45.38 38.56 45.64 37.89 45.64 C 37.23 45.64 36.59 45.38 36.13 44.91 C 35.66 44.44 35.39 43.8 35.39 43.14 C 35.39 42.48 35.66 41.84 36.13 41.37 L 40.406 37.094 C 41.186 36.314 42.454 36.314 43.234 37.094 L 55.37 49.23 C 55.84 49.7 56.11 50.34 56.11 51 C 56.11 51.66 55.84 52.3 55.37 52.77 C 54.91 53.23 54.27 53.5 53.61 53.5 C 52.94 53.5 52.31 53.23 51.84 52.77 L 43.234 44.164 C 42.454 43.384 41.186 43.384 40.406 44.164 L 39.66 44.91 Z " fill="#e6eef5"></path><path d=" M 12.16 52.77 C 11.69 53.23 11.06 53.5 10.39 53.5 C 9.73 53.5 9.09 53.23 8.63 52.77 C 8.16 52.3 7.89 51.66 7.89 51 C 7.89 50.34 8.16 49.7 8.63 49.23 L 24.696 33.164 C 25.476 32.384 26.744 32.384 27.524 33.164 L 43.59 49.23 C 44.06 49.7 44.32 50.34 44.32 51 C 44.32 51.66 44.06 52.3 43.59 52.77 C 43.12 53.23 42.48 53.5 41.82 53.5 C 41.16 53.5 40.52 53.23 40.05 52.77 L 27.524 40.235 C 26.743 39.454 25.476 39.454 24.696 40.234 L 12.16 52.77 Z " fill="#e6eef5"></path><path d=" M 45.75 26.64 C 43.52 26.64 41.39 25.76 39.82 24.18 C 38.24 22.61 37.36 20.48 37.36 18.25 C 37.36 16.02 38.24 13.89 39.82 12.32 C 41.39 10.74 43.52 9.86 45.75 9.86 L 45.75 9.86 C 47.98 9.86 50.11 10.74 51.68 12.32 C 53.26 13.89 54.14 16.02 54.14 18.25 L 54.14 18.25 C 54.14 20.48 53.26 22.61 51.68 24.18 C 50.11 25.76 47.98 26.64 45.75 26.64 Z  M 45.75 21.64 C 44.85 21.64 43.99 21.29 43.35 20.65 C 42.71 20.01 42.36 19.15 42.36 18.25 C 42.36 17.35 42.71 16.49 43.35 15.85 C 43.99 15.21 44.85 14.86 45.75 14.86 L 45.75 14.86 C 46.65 14.86 47.51 15.21 48.15 15.85 C 48.79 16.49 49.14 17.35 49.14 18.25 L 49.14 18.25 C 49.14 19.15 48.79 20.01 48.15 20.65 C 47.51 21.29 46.65 21.64 45.75 21.64 Z " fill-rule="evenodd" fill="#e6eef5"></path></g></svg>