<svg xmlns="http://www.w3.org/2000/svg" width="16.699" height="13.54" viewBox="0 0 16.699 13.54">
  <g id="left-align" transform="translate(0 -31.5)">
    <g id="Group_35" data-name="Group 35" transform="translate(0 31.5)">
      <g id="Group_34" data-name="Group 34">
        <path id="Path_29" data-name="Path 29" d="M16.2,31.5H.5a.5.5,0,1,0,0,1H16.2a.5.5,0,1,0,0-1Z" transform="translate(0 -31.5)" fill="#e6eef5"/>
      </g>
    </g>
    <g id="Group_37" data-name="Group 37" transform="translate(0 35.662)">
      <g id="Group_36" data-name="Group 36">
        <path id="Path_30" data-name="Path 30" d="M11.534,114.5H.5a.5.5,0,0,0,0,1H11.534a.5.5,0,0,0,0-1Z" transform="translate(0 -114.5)" fill="#e6eef5"/>
      </g>
    </g>
    <g id="Group_39" data-name="Group 39" transform="translate(0 39.875)">
      <g id="Group_38" data-name="Group 38" transform="translate(0 0)">
        <path id="Path_31" data-name="Path 31" d="M16.2,198.5H.5a.5.5,0,0,0,0,1H16.2a.5.5,0,0,0,0-1Z" transform="translate(0 -198.5)" fill="#e6eef5"/>
      </g>
    </g>
    <g id="Group_41" data-name="Group 41" transform="translate(0 44.037)">
      <g id="Group_40" data-name="Group 40" transform="translate(0 0)">
        <path id="Path_32" data-name="Path 32" d="M7.572,281.5H.5a.5.5,0,1,0,0,1H7.572a.5.5,0,1,0,0-1Z" transform="translate(0 -281.5)" fill="#e6eef5"/>
      </g>
    </g>
  </g>
</svg>
