<?xml version="1.0" encoding="utf-8"?>
<!-- Generator: Adobe Illustrator 24.2.3, SVG Export Plug-In . SVG Version: 6.00 Build 0)  -->
<svg version="1.1" id="Layer_1" xmlns="http://www.w3.org/2000/svg" xmlns:xlink="http://www.w3.org/1999/xlink" x="0px" y="0px"
	 viewBox="0 0 35.7 34.2" style="enable-background:new 0 0 35.7 34.2;" xml:space="preserve">
<style type="text/css">
	.st0{fill:#E6EEF5;}
</style>
<g id="line-chart" transform="translate(0 -10.631)">
	<g id="Group_6" transform="translate(0 10.631)">
		<g id="Group_5" transform="translate(0 0)">
			<path id="Path_7" class="st0" d="M33.8,30.3L33.8,30.3l-26,0c-2.1,0-3.9-1.7-3.9-3.9V1.9C3.9,0.9,3,0,1.9,0S0,0.9,0,1.9v24.5
				c0,4.3,3.5,7.7,7.7,7.7h26c1.1,0,1.9-0.9,1.9-1.9C35.7,31.2,34.8,30.3,33.8,30.3C33.8,30.3,33.8,30.3,33.8,30.3L33.8,30.3z"/>
		</g>
	</g>
	<g id="Group_8" transform="translate(9.248 18.403)">
		<g id="Group_7" transform="translate(0 0)">
			<path id="Path_8" class="st0" d="M22-6.6c-0.9-0.6-2.1-0.5-2.7,0.4c0,0,0,0,0,0l-4.5,6.4L8.5-4.6C7.6-5.2,6.4-5,5.8-4.2
				c0,0,0,0,0,0L0.2,3.8c-0.6,0.8-0.5,2.1,0.4,2.7c0.3,0.2,0.7,0.4,1.1,0.4v0c0.6,0,1.1-0.3,1.5-0.8l4.5-6.4l6.3,4.8
				c0.9,0.6,2.1,0.5,2.7-0.4c0,0,0,0,0,0l5.6-8C23-4.8,22.9-6,22-6.6C22-6.6,22-6.6,22-6.6z"/>
		</g>
	</g>
	<g id="Group_8_1_" transform="translate(9.248 18.403)">
		<g id="Group_7_1_" transform="translate(0 0)">
			<path id="Path_8_1_" class="st0" d="M22,6.7c-0.9-0.6-2.1-0.5-2.7,0.4c0,0,0,0,0,0l-4.5,6.4L8.5,8.7C7.6,8.1,6.4,8.2,5.8,9.1
				c0,0,0,0,0,0L0.2,17c-0.6,0.8-0.5,2.1,0.4,2.7c0.3,0.2,0.7,0.4,1.1,0.4v0c0.6,0,1.1-0.3,1.5-0.8L7.7,13l6.3,4.8
				c0.9,0.6,2.1,0.5,2.7-0.4c0,0,0,0,0,0l5.6-8C23,8.5,22.9,7.3,22,6.7C22,6.7,22,6.7,22,6.7z"/>
		</g>
	</g>
</g>
</svg>
