<svg xmlns="http://www.w3.org/2000/svg" width="35.69" height="34.208" viewBox="0 0 35.69 34.208">
  <g id="line-chart" transform="translate(0 -10.631)">
    <g id="Group_6" data-name="Group 6" transform="translate(0 10.631)">
      <g id="Group_5" data-name="Group 5" transform="translate(0 0)">
        <path id="Path_7" data-name="Path 7" d="M33.759,40.976v-.015H7.74A3.877,3.877,0,0,1,3.862,37.1V12.562a1.931,1.931,0,1,0-3.862,0V37.1a7.74,7.74,0,0,0,7.74,7.74H33.759a1.931,1.931,0,1,0,0-3.862Z" transform="translate(0 -10.631)" fill="#e6eef5"/>
      </g>
    </g>
    <g id="Group_8" data-name="Group 8" transform="translate(9.248 18.403)">
      <g id="Group_7" data-name="Group 7" transform="translate(0 0)">
        <path id="Path_8" data-name="Path 8" d="M154.842,122.52a1.935,1.935,0,0,0-2.71.389l-4.491,6.437-6.348-4.776a1.931,1.931,0,0,0-2.7.382.026.026,0,0,1-.006.007l-5.524,7.934a1.931,1.931,0,0,0,1.5,3.1v.045a1.935,1.935,0,0,0,1.5-.778l4.491-6.437,6.348,4.776a1.931,1.931,0,0,0,2.7-.382.025.025,0,0,1,.006-.007l5.629-7.979A1.935,1.935,0,0,0,154.842,122.52Z" transform="translate(-132.667 -122.133)" fill="#e6eef5"/>
      </g>
    </g>
  </g>
</svg>
