<svg height='300px' width='300px'  fill="#ffffff" xmlns="http://www.w3.org/2000/svg" data-name="Layer 3" viewBox="0 0 500 500" x="0px" y="0px"><title>features</title><path d="M281.73633,305.0957H440.332a42.04718,42.04718,0,0,0,42-42V204.55176a42.04718,42.04718,0,0,0-42-42H281.73633a42.04718,42.04718,0,0,0-42,42V228.499H35.58984V23.334a10,10,0,0,0-20,0V362.28125a61.10756,61.10756,0,0,0,61.03809,61.03809h163.1084v19.25a42.04718,42.04718,0,0,0,42,42H440.332a42.04718,42.04718,0,0,0,42-42v-58.543a42.04718,42.04718,0,0,0-42-42H281.73633a42.04718,42.04718,0,0,0-42,42v19.293H76.62793a41.084,41.084,0,0,1-41.03809-41.03809V248.499H239.73633V263.0957A42.04718,42.04718,0,0,0,281.73633,305.0957Zm-22,78.93067a22.02489,22.02489,0,0,1,22-22H440.332a22.02489,22.02489,0,0,1,22,22v58.543a22.02489,22.02489,0,0,1-22,22H281.73633a22.02489,22.02489,0,0,1-22-22Zm0-179.47461a22.02489,22.02489,0,0,1,22-22H440.332a22.02489,22.02489,0,0,1,22,22V263.0957a22.02489,22.02489,0,0,1-22,22H281.73633a22.02489,22.02489,0,0,1-22-22Z"></path></svg>