<svg xmlns="http://www.w3.org/2000/svg" width="172.6" height="52" viewBox="0 0 172.6 52">
  <g id="Group_5113" data-name="Group 5113" transform="translate(6402.6 -2562)">
    <text id="Dashboard_builder" data-name="Dashboard
builder" transform="translate(-6352 2579)" fill="#39466b" font-size="18" font-family="GothamRounded-Light, Gotham Rounded" font-weight="300"><tspan x="0" y="0">DASHBOARD</tspan><tspan font-size="26" font-family="GothamRounded-Medium, Gotham Rounded" font-weight="500"><tspan x="0" y="29">BUILDER</tspan></tspan></text>
    <g id="Group_13" data-name="Group 13" transform="translate(-6402.6 2566)">
      <g id="Group_12" data-name="Group 12">
        <path id="Path_16" data-name="Path 16" d="M40.672,0h-4.91a1.228,1.228,0,0,0-1.228,1.228V2.455H24.421a3.682,3.682,0,0,0-6.943,0H7.365V1.228A1.228,1.228,0,0,0,6.138,0H1.228A1.228,1.228,0,0,0,0,1.228v4.91A1.228,1.228,0,0,0,1.228,7.365h4.91A1.228,1.228,0,0,0,7.365,6.138V4.894h5.1A16.127,16.127,0,0,0,5.025,17.467a3.681,3.681,0,1,0,2.46.024A13.706,13.706,0,0,1,17.652,5.318a3.681,3.681,0,0,0,6.6,0A13.706,13.706,0,0,1,34.414,17.492a3.684,3.684,0,1,0,2.46-.024A16.1,16.1,0,0,0,29.43,4.91h5.1V6.138a1.228,1.228,0,0,0,1.228,1.228h4.91A1.228,1.228,0,0,0,41.9,6.138V1.228A1.228,1.228,0,0,0,40.672,0ZM4.91,4.91H2.455V2.455H4.91ZM6.22,22.177A1.228,1.228,0,1,1,7.447,20.95,1.229,1.229,0,0,1,6.22,22.177ZM20.95,4.91a1.228,1.228,0,1,1,1.228-1.228A1.229,1.229,0,0,1,20.95,4.91ZM35.68,19.722a1.228,1.228,0,1,1-1.228,1.228A1.229,1.229,0,0,1,35.68,19.722ZM39.445,4.91H36.99V2.455h2.455Z" fill="#6599ff"/>
      </g>
    </g>
    <g id="Group_15" data-name="Group 15" transform="translate(-6392.698 2575.903)">
      <g id="Group_14" data-name="Group 14">
        <path id="Path_17" data-name="Path 17" d="M142.89,136.286l-9.82-14.73v0l-.011-.015c-.017-.024-.035-.048-.053-.071a1.227,1.227,0,0,0-1.965.071l-.011.015v0l-9.82,14.73a1.227,1.227,0,0,0,.153,1.549,15.552,15.552,0,0,1,4.433,9.076,6.32,6.32,0,0,0-.549.5,6.222,6.222,0,0,0-1.788,4.371,1.228,1.228,0,0,0,1.228,1.228h14.73a1.228,1.228,0,0,0,1.228-1.228,6.223,6.223,0,0,0-1.788-4.371,6.324,6.324,0,0,0-.549-.5,15.55,15.55,0,0,1,4.432-9.076A1.227,1.227,0,0,0,142.89,136.286Zm-10.842-.547a1.228,1.228,0,1,1-1.228,1.228A1.229,1.229,0,0,1,132.048,135.74Zm-5.928,14.812a3.75,3.75,0,0,1,3.473-2.537h4.91a3.75,3.75,0,0,1,3.473,2.537ZM136,145.747a6.031,6.031,0,0,0-1.493-.187h-4.91a6.027,6.027,0,0,0-1.493.187,18.013,18.013,0,0,0-4.309-8.912l7.029-10.544v7.2a3.683,3.683,0,1,0,2.455,0v-7.2l7.029,10.544A18.01,18.01,0,0,0,136,145.747Z" transform="translate(-121 -121.01)" fill="#39466b"/>
      </g>
    </g>
  </g>
</svg>
