<svg xmlns="http://www.w3.org/2000/svg" width="35.69" height="33.323" viewBox="0 0 35.69 33.323">
  <g id="map" transform="translate(0 -16.977)">
    <path id="Path_10" data-name="Path 10" d="M34.848,23.689c-12.109-2.407-11.325-2.281-11.6-2.235-.088.015-1.162.231-3.667.732a7.738,7.738,0,0,0-14.628.009l-3.7-.736A1.046,1.046,0,0,0,0,22.484V47.021a1.046,1.046,0,0,0,.842,1.026c12.007,2.386,11.221,2.232,11.3,2.242.252.031-.528.16,11.28-2.2l11.018,2.19a1.046,1.046,0,0,0,1.249-1.026V24.714a1.046,1.046,0,0,0-.842-1.026Zm-22.58-4.621a5.653,5.653,0,0,1,5.646,5.646c0,2.627-4.2,9.295-5.646,11.5-1.441-2.2-5.646-8.874-5.646-11.5A5.653,5.653,0,0,1,12.268,19.068ZM2.091,23.758l2.454.488c-.009.155-.015.312-.015.469,0,1.744,1.141,4.558,3.487,8.6,1.37,2.362,2.721,4.39,3.2,5.1v9.556L2.091,46.162ZM13.314,38.421c.484-.714,1.835-2.742,3.2-5.1,2.346-4.045,3.487-6.859,3.487-8.6,0-.161-.006-.32-.015-.478l2.385-.477v22.4l-9.062,1.812ZM33.6,47.977l-9.132-1.815v-22.4L33.6,25.573Z" transform="translate(0 0)" fill="#e6eef5"/>
    <path id="Path_11" data-name="Path 11" d="M132.276,87.529A3.276,3.276,0,1,0,129,84.253,3.28,3.28,0,0,0,132.276,87.529Zm0-4.461a1.185,1.185,0,1,1-1.185,1.185A1.186,1.186,0,0,1,132.276,83.068Z" transform="translate(-120.008 -59.539)" fill="#e6eef5"/>
  </g>
</svg>
