<svg xmlns="http://www.w3.org/2000/svg" xmlns:xlink="http://www.w3.org/1999/xlink" width="574" height="258.933" viewBox="0 0 574 258.933"><defs><style>.a,.f{fill:none;}.a{stroke:red;}.b{clip-path:url(#a);}.c{fill:url(#b);}.d{opacity:0.05;fill:url(#c);}.e,.h{fill:#fff;}.e,.f{opacity:0.1;}.g,.h{stroke:none;}</style><clipPath id="a"><path class="a" d="M7,0H567c3.866,0,7,1.932,7,4.314v226.8s-144.233,27.816-287.733,27.816S0,231.117,0,231.117V4.314C0,1.932,3.134,0,7,0Z" transform="translate(-1288 5172)"/></clipPath><linearGradient id="b" x1="0.016" x2="1" y2="1" gradientUnits="objectBoundingBox"><stop offset="0" stop-color="#2a62fb"/><stop offset="1" stop-color="#6355f8"/></linearGradient><linearGradient id="c" x1="0.02" x2="1.069" y2="1" gradientUnits="objectBoundingBox"><stop offset="0" stop-color="#fff"/><stop offset="1" stop-color="gray" stop-opacity="0"/></linearGradient></defs><g class="b" transform="translate(1288 -5172)"><g transform="translate(-1288 5172)"><path class="c" d="M7,0H567c3.866,0,7,1.932,7,4.314v226.8s-144.233,27.816-287.733,27.816S0,231.117,0,231.117V4.314C0,1.932,3.134,0,7,0Z"/><path class="d" d="M7,0H567c3.866,0,7,1.932,7,4.314v226.8s-144.233,27.816-287.733,27.816S0,231.117,0,231.117V4.314C0,1.932,3.134,0,7,0Z"/></g><circle class="e" cx="47.5" cy="47.5" r="47.5" transform="translate(-1327 5136)"/><circle class="e" cx="48.5" cy="48.5" r="48.5" transform="translate(-772 5359)"/><circle class="e" cx="9" cy="9" r="9" transform="translate(-1232 5324)"/><circle class="e" cx="15" cy="15" r="15" transform="translate(-854 5204)"/><circle class="e" cx="8.5" cy="8.5" r="8.5" transform="translate(-824 5359)"/><g class="f" transform="translate(-1191 5235)"><path class="g" d="M14.791,9.117a6,6,0,0,1,10.419,0L34.87,26.023A6,6,0,0,1,29.661,35H10.339A6,6,0,0,1,5.13,26.023Z"/><path class="h" d="M 20 9.093381881713867 C 19.47653961181641 9.093381881713867 18.17486000061035 9.240671157836914 17.3952693939209 10.60497093200684 L 7.734348297119141 27.51157188415527 C 6.960739135742188 28.86540222167969 7.483631134033203 30.05651092529297 7.744350433349609 30.50578117370605 C 8.005069732666016 30.95505142211914 8.779819488525391 32 10.33908081054688 32 L 29.66091918945313 32 C 31.22018051147461 32 31.99493026733398 30.95505142211914 32.25564956665039 30.50578117370605 C 32.5163688659668 30.05651092529297 33.03926086425781 28.86540222167969 32.26564788818359 27.51158142089844 L 22.6047306060791 10.60497093200684 C 21.82513046264648 9.240671157836914 20.52346038818359 9.093381881713867 20 9.093381881713867 M 19.99999618530273 6.0933837890625 C 22.02888488769531 6.0933837890625 24.05777359008789 7.101104736328125 25.2094612121582 9.116552352905273 L 34.87038040161133 26.02316284179688 C 37.15605926513672 30.02311134338379 34.26786041259766 35 29.66091918945313 35 L 10.33908081054688 35 C 5.732139587402344 35 2.843940734863281 30.02311134338379 5.129619598388672 26.02316284179688 L 14.79054069519043 9.116552352905273 C 15.94222068786621 7.101104736328125 17.97110748291016 6.0933837890625 19.99999618530273 6.0933837890625 Z"/></g><g class="f" transform="translate(-1173 5511)"><path class="g" d="M14.791,9.117a6,6,0,0,1,10.419,0L34.87,26.023A6,6,0,0,1,29.661,35H10.339A6,6,0,0,1,5.13,26.023Z"/><path class="h" d="M 20 9.093381881713867 C 19.47653961181641 9.093381881713867 18.17486000061035 9.240671157836914 17.3952693939209 10.60497093200684 L 7.734348297119141 27.51157188415527 C 6.960739135742188 28.86540222167969 7.483631134033203 30.05651092529297 7.744350433349609 30.50578117370605 C 8.005069732666016 30.95505142211914 8.779819488525391 32 10.33908081054688 32 L 29.66091918945313 32 C 31.22018051147461 32 31.99493026733398 30.95505142211914 32.25564956665039 30.50578117370605 C 32.5163688659668 30.05651092529297 33.03926086425781 28.86540222167969 32.26564788818359 27.51158142089844 L 22.6047306060791 10.60497093200684 C 21.82513046264648 9.240671157836914 20.52346038818359 9.093381881713867 20 9.093381881713867 M 19.99999618530273 6.0933837890625 C 22.02888488769531 6.0933837890625 24.05777359008789 7.101104736328125 25.2094612121582 9.116552352905273 L 34.87038040161133 26.02316284179688 C 37.15605926513672 30.02311134338379 34.26786041259766 35 29.66091918945313 35 L 10.33908081054688 35 C 5.732139587402344 35 2.843940734863281 30.02311134338379 5.129619598388672 26.02316284179688 L 14.79054069519043 9.116552352905273 C 15.94222068786621 7.101104736328125 17.97110748291016 6.0933837890625 19.99999618530273 6.0933837890625 Z"/></g><g class="f" transform="translate(-933 5509)"><path class="g" d="M11.5,6.294a4,4,0,0,1,6.993,0l8.2,14.763A4,4,0,0,1,23.2,27H6.8a4,4,0,0,1-3.5-5.943Z"/><path class="h" d="M 15 7.236507415771484 C 14.78024959564209 7.236507415771484 14.37446975708008 7.303327560424805 14.12584018707275 7.750856399536133 L 5.923900604248047 22.51435661315918 C 5.682260513305664 22.94930648803711 5.827880859375 23.32305717468262 5.936189651489258 23.50712585449219 C 6.044500350952148 23.69119644165039 6.30048942565918 23.99999618530273 6.798059463500977 23.99999618530273 L 23.20194053649902 23.99999618530273 C 23.69951057434082 23.99999618530273 23.95549964904785 23.69119644165039 24.06381034851074 23.50712585449219 C 24.172119140625 23.32305717468262 24.31773948669434 22.94930648803711 24.07609939575195 22.51435661315918 L 15.87415981292725 7.750856399536133 C 15.62553024291992 7.303327560424805 15.21975040435791 7.236507415771484 15 7.236507415771484 M 15 4.236503601074219 C 16.3673095703125 4.236503601074219 17.734619140625 4.922311782836914 18.49662971496582 6.293926239013672 L 26.69857025146484 21.05742645263672 C 28.17975044250488 23.72355651855469 26.25188064575195 26.99999618530273 23.20194053649902 26.99999618530273 L 6.798059463500977 26.99999618530273 C 3.748119354248047 26.99999618530273 1.820249557495117 23.72355651855469 3.301429748535156 21.05742645263672 L 11.50337028503418 6.293926239013672 C 12.265380859375 4.922311782836914 13.6326904296875 4.236503601074219 15 4.236503601074219 Z"/></g><path class="e" d="M49.87,5365.435s-14.243,25.554,5.446,36.865,42,5.151,46.919,17.594-18.164,49.552-11.415,67.551,15.081,26.077,35.189,32.675,45.243-6.284,45.243-6.284l23.878-35.607-4.189-94.256s-29.953-32.047-32.675-32.257-77.29,0-77.29,0Z" transform="translate(-852.079 -216)"/><path class="e" d="M-518.05,5869.112c3.05-3.432,12.781-19.246,24.308-20.4s17.354,2.869,21.8,15.788-7.769,25.161-4.01,35.886,19.1,9.372,23.005,9.773,27.165,2.406,31.275,17.342.651,29.821-10.575,37.439-23.832,5.413-37.49,16.44-10.55,16.338-17.141,27.666a168.509,168.509,0,0,0-9.222,17.643l-31.876-9.823-10.826-45.108,20.75-99.037Z" transform="translate(-800 -547)"/><g class="f" transform="translate(-987 5383)"><path class="g" d="M10.791,9.117a6,6,0,0,1,10.419,0l5.661,9.907A6,6,0,0,1,21.661,28H10.339A6,6,0,0,1,5.13,19.023Z"/><path class="h" d="M 16 9.093381881713867 C 15.47653961181641 9.093381881713867 14.17486000061035 9.240671157836914 13.3952693939209 10.60497093200684 L 7.734350204467773 20.5115909576416 C 6.960739135742188 21.86541175842285 7.48362922668457 23.05651092529297 7.744350433349609 23.50578117370605 C 8.005069732666016 23.95505142211914 8.779819488525391 25 10.33908081054688 25 L 21.66091918945313 25 C 23.22018051147461 25 23.99493026733398 23.95505142211914 24.25564956665039 23.50578117370605 C 24.5163688659668 23.05651092529297 25.03926086425781 21.86541175842285 24.26564979553223 20.5115909576416 L 18.60472869873047 10.60497093200684 C 17.82513046264648 9.240671157836914 16.52346038818359 9.093381881713867 16 9.093381881713867 M 15.99999618530273 6.0933837890625 C 18.02888488769531 6.0933837890625 20.05777359008789 7.101106643676758 21.2094612121582 9.116552352905273 L 26.87038040161133 19.02317047119141 C 29.15605926513672 23.02311134338379 26.26786041259766 28.00000190734863 21.66091918945313 28.00000190734863 L 10.33908081054688 28.00000190734863 C 5.732139587402344 28.00000190734863 2.843940734863281 23.02311134338379 5.129619598388672 19.02317047119141 L 10.79054069519043 9.116552352905273 C 11.94222068786621 7.101106643676758 13.97110748291016 6.0933837890625 15.99999618530273 6.0933837890625 Z"/></g></g></svg>