<?xml version="1.0" encoding="utf-8"?>
<!-- Generator: Adobe Illustrator 24.3.0, SVG Export Plug-In . SVG Version: 6.00 Build 0)  -->
<svg version="1.1" id="Layer_1" xmlns="http://www.w3.org/2000/svg" xmlns:xlink="http://www.w3.org/1999/xlink" x="0px" y="0px"
	 viewBox="0 0 271 271" style="enable-background:new 0 0 271 271;" xml:space="preserve">
<style type="text/css">
	.st0{opacity:0.14;fill:#6A99F7;}
	.st1{fill:#6A99F7;}
</style>
<circle id="Ellipse_240" class="st0" cx="135.5" cy="135.5" r="135.5"/>
<path id="ms-edit" class="st1" d="M154.7,83l32.2,32.3l-81.5,81.9l-32.2-32.3L154.7,83z M211.3,75.2l-14.4-14.4
	c-5.5-5.6-14.5-5.6-20.1,0c0,0,0,0,0,0L163,74.6l32.2,32.3l16-16.1C215.6,86.5,215.6,79.5,211.3,75.2L211.3,75.2z M56.3,210.3
	c-0.4,2,0.8,3.9,2.8,4.4c0.5,0.1,1.1,0.1,1.7,0l35.9-8.7l-32.2-32.3L56.3,210.3z"/>
</svg>
