<?xml version="1.0" encoding="utf-8"?>
<!-- Generator: Adobe Illustrator 24.3.0, SVG Export Plug-In . SVG Version: 6.00 Build 0)  -->
<svg version="1.1" id="Layer_1" xmlns="http://www.w3.org/2000/svg" xmlns:xlink="http://www.w3.org/1999/xlink" x="0px" y="0px"
	 viewBox="0 0 271 271" style="enable-background:new 0 0 271 271;" xml:space="preserve">
<style type="text/css">
	.st0{opacity:0.14;fill:#21CC97;}
	.st1{fill:#21CC97;}
</style>
<circle id="Ellipse_240" class="st0" cx="135.5" cy="135.5" r="135.5"/>
<g>
	<path class="st1" d="M211,71.5l-34.4-34.4c-1.3-1.3-3-2-4.7-1.9h-70.2c-9.3,0-16.8,7.5-16.8,16.8v10h-10c-9.2,0-16.7,7.5-16.7,16.8
		v140.5c0.1,9.2,7.5,16.6,16.7,16.7h93.6c9.2,0,16.7-7.5,16.7-16.8v-10h10.9c9.3,0,16.8-7.5,16.8-16.8V76.2
		C212.9,74.5,212.2,72.8,211,71.5z M178.5,58l11.6,11.6h-11.6V58z M171.8,219c0,1.8-1.4,3.4-3.3,3.4c0,0,0,0-0.1,0H74.8
		c-1.8,0-3.3-1.5-3.3-3.3c0,0,0,0,0-0.1V78.6c0-1.8,1.5-3.3,3.3-3.3h10v117c0,9.3,7.5,16.8,16.8,16.8h70.2V219z M196.1,195.7h-94.4
		c-1.9,0-3.4-1.5-3.4-3.4l0,0V51.8c0.1-1.8,1.6-3.3,3.4-3.3h63.5v27.7c0,3.7,3,6.7,6.7,6.7h27.7v109.4
		C199.5,194.2,198,195.7,196.1,195.7L196.1,195.7z"/>
	<path class="st1" d="M153.2,97.3c-2.6-2.6-6.8-2.6-9.5,0c0,0,0,0,0,0l-23.4,23.4c-2.6,2.6-2.6,6.9,0,9.5s6.9,2.6,9.5,0l12-12v42.4
		c0,3.7,3,6.7,6.7,6.7c3.7,0,6.7-3,6.7-6.7v-42.4l12,12c2.6,2.6,6.8,2.6,9.5,0c0,0,0,0,0,0c2.6-2.6,2.6-6.8,0-9.5c0,0,0,0,0,0
		L153.2,97.3z"/>
</g>
</svg>
