<?xml version="1.0" encoding="utf-8"?>
<!-- Generator: Adobe Illustrator 24.3.0, SVG Export Plug-In . SVG Version: 6.00 Build 0)  -->
<svg version="1.1" id="Layer_1" xmlns="http://www.w3.org/2000/svg" xmlns:xlink="http://www.w3.org/1999/xlink" x="0px" y="0px"
	 viewBox="0 0 271 271" style="enable-background:new 0 0 271 271;" xml:space="preserve">
<style type="text/css">
	.st0{opacity:0.14;fill:#EAB73F;}
	.st1{fill:#EAB73F;}
</style>
<circle id="Ellipse_240" class="st0" cx="135.5" cy="135.5" r="135.5"/>
<g>
	<path class="st1" d="M243.6,134.5c0-0.1,0-0.3,0-0.4c0-0.1,0-0.2-0.1-0.3c0-0.1,0-0.2-0.1-0.4c0-0.1-0.1-0.2-0.1-0.3
		c0-0.1-0.1-0.2-0.1-0.4c0-0.1-0.1-0.2-0.1-0.3c0-0.1-0.1-0.2-0.2-0.3c0-0.1-0.1-0.2-0.2-0.3c0-0.1-0.1-0.2-0.2-0.3
		c0-0.1-0.1-0.2-0.2-0.3c-0.1-0.1-0.1-0.2-0.2-0.3c-0.1-0.1-0.1-0.2-0.2-0.3c0,0,0,0-0.1-0.1l-22.3-25.3c-2.8-3.1-7.6-3.5-10.8-0.7
		c-3.1,2.8-3.5,7.6-0.7,10.8l11.1,12.6h-76V50.5l11.7,11c1.5,1.4,3.4,2.1,5.2,2.1c2,0,4.1-0.8,5.6-2.4c2.9-3.1,2.7-7.9-0.4-10.8
		l-24.5-23c0,0-0.1-0.1-0.2-0.1c-0.1-0.1-0.2-0.2-0.3-0.2c-0.1-0.1-0.2-0.1-0.3-0.2c-0.1-0.1-0.2-0.1-0.3-0.2
		c-0.1-0.1-0.2-0.1-0.3-0.2c-0.1,0-0.2-0.1-0.3-0.2c-0.1,0-0.2-0.1-0.4-0.2c-0.1,0-0.2-0.1-0.3-0.1c-0.1,0-0.2-0.1-0.4-0.1
		c-0.1,0-0.2-0.1-0.4-0.1c-0.1,0-0.3,0-0.4-0.1c-0.1,0-0.2,0-0.4-0.1s-0.3,0-0.4,0c-0.1,0-0.2,0-0.3,0c-0.5,0-1,0-1.5,0
		c-0.1,0-0.2,0-0.3,0c-0.1,0-0.3,0-0.4,0c-0.1,0-0.2,0-0.4,0.1c-0.1,0-0.2,0-0.4,0.1c-0.1,0-0.2,0.1-0.4,0.1c-0.1,0-0.2,0.1-0.4,0.1
		c-0.1,0-0.2,0.1-0.3,0.1c-0.1,0-0.2,0.1-0.4,0.2c-0.1,0-0.2,0.1-0.3,0.2s-0.2,0.1-0.3,0.2s-0.2,0.1-0.3,0.2
		c-0.1,0.1-0.2,0.1-0.3,0.2c-0.1,0.1-0.2,0.2-0.3,0.2c0,0-0.1,0.1-0.2,0.1l-24.5,23c-3.1,2.9-3.2,7.7-0.4,10.8
		c2.9,3.1,7.7,3.2,10.8,0.4l11.7-11v77.4h-76l11.1-12.6c2.8-3.1,2.5-8-0.7-10.8c-3.1-2.8-8-2.5-10.8,0.7l-22.3,25.3c0,0,0,0-0.1,0.1
		c-0.1,0.1-0.1,0.2-0.2,0.3c-0.1,0.1-0.1,0.2-0.2,0.3c0,0.1-0.1,0.2-0.2,0.3c0,0.1-0.1,0.2-0.2,0.3c0,0.1-0.1,0.2-0.2,0.3
		c0,0.1-0.1,0.2-0.2,0.3c0,0.1-0.1,0.2-0.1,0.3c0,0.1-0.1,0.2-0.1,0.4c0,0.1-0.1,0.2-0.1,0.3c0,0.1,0,0.2-0.1,0.4
		c0,0.1,0,0.2-0.1,0.3c0,0.1,0,0.3,0,0.4c0,0.1,0,0.2,0,0.3c0,0.5,0,1,0,1.4c0,0.1,0,0.2,0,0.3c0,0.1,0,0.3,0,0.4
		c0,0.1,0,0.2,0.1,0.3c0,0.1,0,0.2,0.1,0.4c0,0.1,0.1,0.2,0.1,0.3c0,0.1,0.1,0.2,0.1,0.4c0,0.1,0.1,0.2,0.1,0.3
		c0,0.1,0.1,0.2,0.2,0.3c0,0.1,0.1,0.2,0.2,0.3c0,0.1,0.1,0.2,0.2,0.3c0,0.1,0.1,0.2,0.2,0.3c0.1,0.1,0.1,0.2,0.2,0.3
		c0.1,0.1,0.1,0.2,0.2,0.3c0,0,0,0,0.1,0.1l22.3,25.3c1.5,1.7,3.6,2.6,5.7,2.6c1.8,0,3.6-0.6,5-1.9c3.1-2.8,3.5-7.6,0.7-10.8
		l-11.1-12.6h76.1v77.4l-11.7-11c-3.1-2.9-7.9-2.7-10.8,0.4c-2.9,3.1-2.7,7.9,0.4,10.8l24.5,23c0,0,0.1,0.1,0.2,0.1
		c0.1,0.1,0.2,0.2,0.3,0.2c0.1,0.1,0.2,0.1,0.3,0.2c0.1,0.1,0.2,0.1,0.3,0.2c0.1,0.1,0.2,0.1,0.3,0.2s0.2,0.1,0.3,0.2
		c0.1,0,0.2,0.1,0.4,0.2c0.1,0,0.2,0.1,0.3,0.1c0.1,0,0.2,0.1,0.4,0.1c0.1,0,0.2,0.1,0.4,0.1c0.1,0,0.2,0,0.4,0.1
		c0.1,0,0.2,0,0.4,0.1c0.1,0,0.3,0,0.4,0c0.1,0,0.2,0,0.3,0c0.2,0,0.5,0,0.7,0c0.2,0,0.5,0,0.7,0c0.1,0,0.2,0,0.3,0
		c0.1,0,0.3,0,0.4,0c0.1,0,0.2,0,0.4-0.1c0.1,0,0.2,0,0.4-0.1c0.1,0,0.2-0.1,0.4-0.1c0.1,0,0.2-0.1,0.4-0.1c0.1,0,0.2-0.1,0.3-0.1
		c0.1,0,0.2-0.1,0.4-0.2c0.1,0,0.2-0.1,0.3-0.2c0.1,0,0.2-0.1,0.3-0.2c0.1,0,0.2-0.1,0.3-0.2c0.1-0.1,0.2-0.1,0.3-0.2
		c0.1-0.1,0.2-0.2,0.3-0.2c0,0,0.1-0.1,0.2-0.1l24.5-23c3.1-2.9,3.2-7.7,0.4-10.8c-2.9-3.1-7.7-3.2-10.8-0.4l-11.7,11v-77.4h76.1
		l-11.1,12.6c-2.8,3.1-2.5,8,0.7,10.8c1.4,1.3,3.2,1.9,5,1.9c2.1,0,4.2-0.9,5.7-2.6l22.3-25.3c0,0,0,0,0.1-0.1
		c0.1-0.1,0.1-0.2,0.2-0.3c0.1-0.1,0.1-0.2,0.2-0.3c0-0.1,0.1-0.2,0.2-0.3c0-0.1,0.1-0.2,0.2-0.3c0-0.1,0.1-0.2,0.2-0.3
		c0-0.1,0.1-0.2,0.2-0.3c0-0.1,0.1-0.2,0.1-0.3c0-0.1,0.1-0.2,0.1-0.4c0-0.1,0.1-0.2,0.1-0.3c0-0.1,0-0.2,0.1-0.4
		c0-0.1,0-0.2,0.1-0.3c0-0.1,0-0.3,0-0.4c0-0.1,0-0.2,0-0.3c0-0.5,0-1,0-1.4C243.6,134.7,243.6,134.6,243.6,134.5z"/>
</g>
</svg>
