<?xml version="1.0" encoding="utf-8"?>
<!-- Generator: Adobe Illustrator 24.2.3, SVG Export Plug-In . SVG Version: 6.00 Build 0)  -->
<svg version="1.1" id="Layer_1" xmlns="http://www.w3.org/2000/svg" xmlns:xlink="http://www.w3.org/1999/xlink" x="0px" y="0px"
	 viewBox="0 0 30 34.9" style="enable-background:new 0 0 30 34.9;" xml:space="preserve">
<style type="text/css">
	.st0{fill:#576A7C;}
	.st1{fill:#F6516F;}
	.st2{fill:none;stroke:#FFFFFF;stroke-width:2;}
</style>
<g id="Group_49" transform="translate(-1589 -31)">
	<g id="Group_22" transform="translate(59 -19)">
		<g id="notification_3_" transform="translate(1530 57.704)">
			<g id="Group_21" transform="translate(0)">
				<path id="Path_24" class="st0" d="M23.5,19.8h-1.2V9.9c0-5.5-4.4-9.9-9.9-9.9S2.5,4.4,2.5,9.9v9.9H1.2C0.6,19.8,0,20.3,0,21
					s0.6,1.2,1.2,1.2h6.2c0,2.7,2.3,4.9,5,4.9c2.7,0,4.8-2.2,4.9-4.9h6.2c0.7,0,1.2-0.6,1.2-1.2S24.2,19.8,23.5,19.8L23.5,19.8z
					 M12.4,24.7c-1.4,0-2.5-1.1-2.5-2.5h4.9C14.8,23.6,13.7,24.7,12.4,24.7z M19.8,19.8H4.9V9.9c0-4.1,3.3-7.4,7.4-7.4
					c4.1,0,7.4,3.3,7.4,7.4V19.8z"/>
			</g>
		</g>
		<path id="Rectangle_7" class="st0" d="M1542.5,53L1542.5,53c1.4,0,2.5,1.1,2.5,2.5v2c0,1.4-1.1,2.5-2.5,2.5l0,0
			c-1.4,0-2.5-1.1-2.5-2.5v-2C1540,54.1,1541.1,53,1542.5,53z"/>
	</g>
	<g id="Ellipse_3" transform="translate(1605 31)">
		<circle class="st1" cx="7" cy="7" r="7"/>
		<circle class="st2" cx="7" cy="7" r="6"/>
	</g>
</g>
</svg>
