<?xml version="1.0" encoding="utf-8"?>
<!-- Generator: Adobe Illustrator 24.3.0, SVG Export Plug-In . SVG Version: 6.00 Build 0)  -->
<svg version="1.1" id="Layer_1" xmlns="http://www.w3.org/2000/svg" xmlns:xlink="http://www.w3.org/1999/xlink" x="0px" y="0px"
	 viewBox="0 0 237.5 237.5" style="enable-background:new 0 0 237.5 237.5;" xml:space="preserve">
<style type="text/css">
	.st0{fill:#E6EEF5;}
</style>
<desc>Created with Sketch.</desc>
<g>
	<path class="st0" d="M108,87.5h37.1l5.1-20.3c0.8-3.3,4.2-5.4,7.6-4.5c3.3,0.8,5.4,4.2,4.5,7.6L158,87.5h10.7
		c3.5,0,6.3,2.8,6.3,6.3s-2.8,6.3-6.3,6.3h-13.9l-9.4,37.5h23.2c3.5,0,6.3,2.8,6.3,6.3s-2.8,6.3-6.3,6.3h-26.4l-5.1,20.3
		c-0.8,3.3-4.2,5.4-7.6,4.5c-3.3-0.8-5.4-4.2-4.5-7.6l4.3-17.2H92.4l-5.1,20.3c-0.8,3.3-4.2,5.4-7.6,4.5c-3.3-0.8-5.4-4.2-4.5-7.6
		l4.3-17.2H68.8c-3.5,0-6.3-2.8-6.3-6.3s2.8-6.3,6.3-6.3h13.9L92,100H68.8c-3.5,0-6.3-2.8-6.3-6.3s2.8-6.3,6.3-6.3h26.4l5.1-20.3
		c0.8-3.3,4.2-5.4,7.6-4.5c3.3,0.8,5.4,4.2,4.5,7.6L108,87.5z M104.9,100l-9.4,37.5h37.1L142,100H104.9L104.9,100z M225,118.8
		c0-58.7-47.6-106.3-106.3-106.3S12.5,60.1,12.5,118.8S60.1,225,118.8,225S225,177.4,225,118.8z M237.5,118.8
		c0,65.6-53.2,118.8-118.8,118.8S0,184.3,0,118.8S53.2,0,118.8,0S237.5,53.2,237.5,118.8z"/>
</g>
</svg>
