<svg id="pie-chart_3_" data-name="pie-chart (3)" xmlns="http://www.w3.org/2000/svg" width="35.69" height="35.69" viewBox="0 0 35.69 35.69">
  <g id="Group_2" data-name="Group 2" transform="translate(0 4.322)">
    <g id="Group_1" data-name="Group 1">
      <path id="Path_5" data-name="Path 5" d="M16.73,76.639V62H15.684A15.684,15.684,0,1,0,31.368,77.684V76.639ZM15.684,91.277a13.593,13.593,0,0,1-1.046-27.146v14.6h14.6A13.611,13.611,0,0,1,15.684,91.277Z" transform="translate(0 -62)" fill="#e6eef5"/>
    </g>
  </g>
  <g id="Group_4" data-name="Group 4" transform="translate(18.96)">
    <g id="Group_3" data-name="Group 3">
      <path id="Path_6" data-name="Path 6" d="M284.136,4.594A15.581,15.581,0,0,0,273.046,0H272V16.73h16.73V15.684A15.581,15.581,0,0,0,284.136,4.594ZM274.091,14.638V2.131A13.615,13.615,0,0,1,286.6,14.638Z" transform="translate(-272)" fill="#e6eef5"/>
    </g>
  </g>
</svg>
