<svg height='300px' width='300px'  fill="#e6eef5" xmlns="http://www.w3.org/2000/svg" data-name="Layer 1" viewBox="0 0 100 100" x="0px" y="0px"><title>17</title><g data-name="Group"><path data-name="Compound Path" d="M94.1,5.4H90.6c-19.5,0-36.2,6.2-49.1,18.2a27,27,0,0,0-10.3-2.3,22.6,22.6,0,0,0-23,17.3,7.1,7.1,0,0,0,1.1,5.5,6.8,6.8,0,0,0,4.9,2.6l10.4.4a76.8,76.8,0,0,0-5.3,16.2c-1,5.1,3.9,10.6,5.5,12.2s5.5,5,9.2,5l1.3-.2a73.9,73.9,0,0,0,17.1-5.4l.5,10.4a6.4,6.4,0,0,0,2.5,4.9,7.3,7.3,0,0,0,4,1.3l1.5-.2a22.6,22.6,0,0,0,17.3-23,26,26,0,0,0-2.3-10.2c12-13,18.2-29.7,18.2-49.2ZM86.2,21a15.6,15.6,0,0,1-7.7-7.7,78.9,78.9,0,0,1,8.5-.8A78.9,78.9,0,0,1,86.2,21Zm-27,42.1-2.6,1.7A29.6,29.6,0,0,1,34.7,42.9l1.6-2.4A60.7,60.7,0,0,1,71.6,14.8,21.8,21.8,0,0,0,84.7,27.9C80.8,42.4,72.2,54.3,59.2,63.1ZM30.9,28.3a24.7,24.7,0,0,1,5.3.8,73.8,73.8,0,0,0-5.7,7.5c-.8,1.1-1.4,2.2-2.1,3.3l-1.4.3h0l-11.8-.5A15.5,15.5,0,0,1,30.9,28.3Zm3.2,45.2c-.7-.1-2.9-1.2-5.2-3.9s-2.8-4.4-2.7-4.9a65.3,65.3,0,0,1,4.1-13.2A36.3,36.3,0,0,0,48,69.2,74.6,74.6,0,0,1,34.1,73.5ZM59.8,84.4l-.5-11.9h0l.3-1.4,3.6-2.2c2.5-1.8,4.9-3.6,7.2-5.6a24.7,24.7,0,0,1,.8,5.3A15.7,15.7,0,0,1,59.8,84.4Z"></path><path data-name="Compound Path" d="M72,27.5a14.3,14.3,0,0,0-9.9-4.1,14,14,0,0,0-9.9,23.9h0a13.6,13.6,0,0,0,9.9,4.1A13.8,13.8,0,0,0,72,47.3,14.1,14.1,0,0,0,72,27.5ZM67,42.4a7.1,7.1,0,0,1-9.9,0h0a7.1,7.1,0,0,1,0-9.9,7.3,7.3,0,0,1,5-2.1A7.1,7.1,0,0,1,67,32.5,6.9,6.9,0,0,1,67,42.4Z"></path><path data-name="Path" d="M18.6,76,7.5,87.1a3.4,3.4,0,0,0,0,4.9A3.5,3.5,0,0,0,10,93a3.1,3.1,0,0,0,2.4-1L23.6,80.9a3.6,3.6,0,0,0,0-4.9A3.5,3.5,0,0,0,18.6,76Z"></path><path data-name="Path" d="M20.7,93.6a3.5,3.5,0,0,0,2.5,1,3.1,3.1,0,0,0,2.4-1l5.2-5.2a3.5,3.5,0,0,0,0-5,3.6,3.6,0,0,0-4.9,0l-5.2,5.2A3.5,3.5,0,0,0,20.7,93.6Z"></path><path data-name="Path" d="M6.9,77.8a3.6,3.6,0,0,0,2.5,1.1,3.2,3.2,0,0,0,2.4-1.1l4.3-4.2a3.6,3.6,0,0,0,0-4.9,3.5,3.5,0,0,0-5,0L6.9,72.9A3.4,3.4,0,0,0,6.9,77.8Z"></path></g></svg>