<?xml version="1.0" encoding="utf-8"?>
<!-- Generator: Adobe Illustrator 24.3.0, SVG Export Plug-In . SVG Version: 6.00 Build 0)  -->
<svg version="1.1" id="Layer_1" xmlns="http://www.w3.org/2000/svg" xmlns:xlink="http://www.w3.org/1999/xlink" x="0px" y="0px"
	 viewBox="0 0 208.6 239" style="enable-background:new 0 0 208.6 239;" xml:space="preserve">
<style type="text/css">
	.st0{fill:#E6EEF5;}
</style>
<desc>Created with Sketch.</desc>
<g>
	<path class="st0" d="M99,111V9c0-2.5,2-4.5,4.5-4.5s4.5,2,4.5,4.5v103.8l92.3-53.3c2.2-1.2,4.9-0.5,6.1,1.6
		c1.2,2.2,0.5,4.9-1.6,6.1l-90.7,52.4l90.7,52.4c2.2,1.2,2.9,4,1.6,6.1s-4,2.9-6.1,1.6L108,126.6V231c0,2.5-2,4.5-4.5,4.5
		s-4.5-2-4.5-4.5V128.4L9.9,179.8c-2.2,1.2-4.9,0.5-6.1-1.6s-0.5-4.9,1.6-6.1l90.7-52.4L5.4,67.3c-2.2-1.2-2.9-4-1.6-6.1
		c1.2-2.2,4-2.9,6.1-1.6L99,111z"/>
	<path class="st0" d="M101.2,0.6c1.4-0.8,3.1-0.8,4.5,0l100.6,57.8c1.4,0.8,2.3,2.3,2.3,3.9v115.1c0,1.6-0.9,3.1-2.3,3.9
		l-100.6,57.1c-1.4,0.8-3.1,0.8-4.5,0l-99-57.1C0.9,180.5,0,179,0,177.4V62.3c0-1.6,0.8-3.1,2.2-3.9L101.2,0.6z M103.5,9.7L9,64.9
		v109.9l94.5,54.5l96.1-54.6V64.9L103.5,9.7z"/>
	<path class="st0" d="M103.7,32.3l74.9,43.9v87.2l-74.9,43.3L30,163.4V76.2L103.7,32.3z M103.8,42.7L39,81.3v76.9l64.8,38.1
		l65.8-38.1V81.3L103.8,42.7z"/>
	<path class="st0" d="M104,71.3l41.6,24.3v48.2l-41.6,24l-41-24V95.6L104,71.3z M72,100.7v37.9l32,18.7l32.6-18.8v-37.8l-32.6-19
		L72,100.7z"/>
</g>
</svg>
