<svg height='300px' width='300px'  fill="#e6eef5" xmlns="http://www.w3.org/2000/svg" viewBox="0 0 48 48" x="0px" y="0px"><title>Ui vol.1</title><g data-name="Layer 10"><path d="M10.90234,32.08838a8.00659,8.00659,0,1,1,8.00684-8.00684A8.01583,8.01583,0,0,1,10.90234,32.08838Zm0-14.01318a6.00659,6.00659,0,1,0,6.00684,6.00634A6.01343,6.01343,0,0,0,10.90234,18.0752Z"></path><path d="M10.90234,28.0708a3.989,3.989,0,1,1,3.98877-3.98926A3.99374,3.99374,0,0,1,10.90234,28.0708Zm0-5.978a1.989,1.989,0,1,0,1.98877,1.98877A1.99134,1.99134,0,0,0,10.90234,22.09277Z"></path><path d="M37.09766,20.06982A8.00684,8.00684,0,1,1,45.10449,12.063,8.01583,8.01583,0,0,1,37.09766,20.06982Zm0-14.01367A6.00684,6.00684,0,1,0,43.10449,12.063,6.01386,6.01386,0,0,0,37.09766,6.05615Z"></path><path d="M37.09766,43.94385A8.00684,8.00684,0,1,1,45.10449,35.937,8.01584,8.01584,0,0,1,37.09766,43.94385Zm0-14.01367A6.00684,6.00684,0,1,0,43.10449,35.937,6.01385,6.01385,0,0,0,37.09766,29.93018Z"></path><path d="M20.48535,20.07031A1.00031,1.00031,0,0,1,20.102,18.146l6.80078-2.81885a1,1,0,1,1,.76563,1.84765l-6.80078,2.81885A.99874.99874,0,0,1,20.48535,20.07031Z"></path><path d="M27.28516,32.81006a.99818.99818,0,0,1-.38916-.07959l-6.80079-2.8794a.99994.99994,0,1,1,.7793-1.84179l6.80078,2.87939a1.0003,1.0003,0,0,1-.39013,1.92139Z"></path></g></svg>