<svg xmlns="http://www.w3.org/2000/svg" width="16.7" height="16.622" viewBox="0 0 16.7 16.622">
  <g id="settings_4_" data-name="settings (4)" transform="translate(0 -1.196)">
    <g id="Group_45" data-name="Group 45" transform="translate(4.866 6.068)">
      <g id="Group_44" data-name="Group 44">
        <path id="Path_33" data-name="Path 33" d="M152.663,150.569a3.481,3.481,0,1,0,3.481,3.481A3.485,3.485,0,0,0,152.663,150.569Zm0,5.569a2.088,2.088,0,1,1,2.088-2.088A2.091,2.091,0,0,1,152.663,156.138Z" transform="translate(-149.182 -150.569)" fill="#e6eef5"/>
      </g>
    </g>
    <g id="Group_47" data-name="Group 47" transform="translate(0 1.196)">
      <g id="Group_46" data-name="Group 46" transform="translate(0 0)">
        <path id="Path_34" data-name="Path 34" d="M16.1,7.469,14.124,7.15l1.183-1.573a.7.7,0,0,0-.061-.908L13.269,2.663a.694.694,0,0,0-.913-.069L10.739,3.731l-.313-1.949A.7.7,0,0,0,9.739,1.2H6.954a.7.7,0,0,0-.689.6L5.939,3.766,4.331,2.59a.7.7,0,0,0-.9.069L1.458,4.622a.7.7,0,0,0-.065.912L2.546,7.148.6,7.426a.7.7,0,0,0-.6.689V10.9a.693.693,0,0,0,.6.688l1.979.319L1.393,13.48a.7.7,0,0,0,.064.911l1.97,1.97a.7.7,0,0,0,.911.064l1.614-1.153.278,1.949a.7.7,0,0,0,.689.6H9.7a.7.7,0,0,0,.689-.6l.319-1.979,1.573,1.183a.7.7,0,0,0,.911-.064l1.97-1.97a.7.7,0,0,0,.064-.911L14.059,11.87l2.026-.237a.7.7,0,0,0,.615-.691V8.158A.7.7,0,0,0,16.1,7.469Zm-.794,2.853-1.421.166a1.366,1.366,0,0,0-1.11.861,1.4,1.4,0,0,0,.158,1.4l.82,1.089L12.64,14.95l-1.094-.824a1.37,1.37,0,0,0-1.348-.171,1.385,1.385,0,0,0-.9,1.119L9.1,16.426H7.524l-.193-1.343a1.365,1.365,0,0,0-.86-1.11,1.4,1.4,0,0,0-1.4.157l-1.089.82L2.869,13.835l.824-1.094a1.372,1.372,0,0,0,.171-1.348,1.385,1.385,0,0,0-1.12-.9L1.392,10.3V8.719l1.344-.193a1.365,1.365,0,0,0,1.11-.86,1.4,1.4,0,0,0-.157-1.4L2.869,5.18,3.988,4.065l1.126.823a1.435,1.435,0,0,0,2.251-.948l.193-1.352H9.146L9.361,3.93a1.366,1.366,0,0,0,.861,1.112,1.4,1.4,0,0,0,1.394-.157L12.7,4.072l1.131,1.146-.826,1.1a1.435,1.435,0,0,0,.948,2.252l1.351.193v1.561Z" transform="translate(0 -1.196)" fill="#e6eef5"/>
      </g>
    </g>
  </g>
</svg>
