<svg id="vector_1_" data-name="vector (1)" xmlns="http://www.w3.org/2000/svg" width="35.69" height="35.69" viewBox="0 0 35.69 35.69">
  <g id="Group_13" data-name="Group 13">
    <g id="Group_12" data-name="Group 12">
      <path id="Path_16" data-name="Path 16" d="M34.644,0H30.462a1.046,1.046,0,0,0-1.046,1.046V2.091H20.8a3.136,3.136,0,0,0-5.914,0H6.274V1.046A1.046,1.046,0,0,0,5.228,0H1.046A1.046,1.046,0,0,0,0,1.046V5.228A1.046,1.046,0,0,0,1.046,6.274H5.228A1.046,1.046,0,0,0,6.274,5.228V4.168h4.348a13.737,13.737,0,0,0-6.341,10.71,3.136,3.136,0,1,0,2.1.021A11.675,11.675,0,0,1,15.036,4.53a3.135,3.135,0,0,0,5.619,0A11.675,11.675,0,0,1,29.314,14.9a3.138,3.138,0,1,0,2.1-.021,13.713,13.713,0,0,0-6.341-10.7h4.348V5.228a1.046,1.046,0,0,0,1.046,1.046h4.182A1.046,1.046,0,0,0,35.69,5.228V1.046A1.046,1.046,0,0,0,34.644,0ZM4.182,4.182H2.091V2.091H4.182ZM5.3,18.891a1.046,1.046,0,1,1,1.046-1.046A1.047,1.047,0,0,1,5.3,18.891ZM17.845,4.182a1.046,1.046,0,1,1,1.046-1.046A1.047,1.047,0,0,1,17.845,4.182ZM30.392,16.8a1.046,1.046,0,1,1-1.046,1.046A1.047,1.047,0,0,1,30.392,16.8ZM33.6,4.182H31.508V2.091H33.6Z" fill="#e6eef5"/>
    </g>
  </g>
  <g id="Group_15" data-name="Group 15" transform="translate(8.435 8.435)">
    <g id="Group_14" data-name="Group 14">
      <path id="Path_17" data-name="Path 17" d="M139.645,134.022l-8.365-12.547h0l-.009-.013c-.014-.021-.029-.041-.045-.061a1.046,1.046,0,0,0-1.674.061l-.009.013h0l-8.365,12.547a1.045,1.045,0,0,0,.131,1.319,13.247,13.247,0,0,1,3.776,7.731,5.385,5.385,0,0,0-.468.424,5.3,5.3,0,0,0-1.523,3.723,1.046,1.046,0,0,0,1.046,1.046h12.547a1.046,1.046,0,0,0,1.046-1.046,5.3,5.3,0,0,0-1.523-3.723,5.393,5.393,0,0,0-.468-.424,13.246,13.246,0,0,1,3.776-7.731A1.045,1.045,0,0,0,139.645,134.022Zm-9.235-.466a1.046,1.046,0,1,1-1.046,1.046A1.047,1.047,0,0,1,130.411,133.557Zm-5.05,12.617a3.194,3.194,0,0,1,2.959-2.161H132.5a3.194,3.194,0,0,1,2.959,2.161Zm8.413-4.093a5.137,5.137,0,0,0-1.272-.159h-4.182a5.133,5.133,0,0,0-1.272.159,15.344,15.344,0,0,0-3.67-7.591l5.988-8.981v6.137a3.137,3.137,0,1,0,2.091,0v-6.137l5.988,8.981A15.341,15.341,0,0,0,133.774,142.081Z" transform="translate(-121 -121.01)" fill="#e6eef5"/>
    </g>
  </g>
</svg>
