<?xml version="1.0" encoding="utf-8"?>
<!-- Generator: Adobe Illustrator 24.2.3, SVG Export Plug-In . SVG Version: 6.00 Build 0)  -->
<svg version="1.1" id="Layer_1" xmlns="http://www.w3.org/2000/svg" xmlns:xlink="http://www.w3.org/1999/xlink" x="0px" y="0px"
	 viewBox="0 0 96.4 49" style="enable-background:new 0 0 96.4 49;" xml:space="preserve">
<style type="text/css">
	.st0{opacity:0.57;}
	.st1{fill:#6497FC;}
</style>
<g id="dashboard_5_" transform="translate(0.001 -52.475)" class="st0">
	<g id="Group_4737" transform="translate(-0.001 52.475)">
		<g id="Group_4736" transform="translate(0 0)">
			<path id="Path_2219" class="st1" d="M69.8,9.3c-0.8-0.8-2.1-0.9-3.1-0.3C63.1,11.4,45,23.8,43.1,25.7c-2.8,2.8-2.8,7.4,0,10.2
				s7.4,2.8,10.2,0c1.9-1.9,14.3-20,16.7-23.6C70.7,11.4,70.6,10.1,69.8,9.3z M49.9,32.5c-0.9,1-2.4,1-3.4,0.1s-1-2.4-0.1-3.4
				c0,0,0.1-0.1,0.1-0.1c0.8-0.7,5.9-4.4,12.2-8.8C54.3,26.6,50.7,31.8,49.9,32.5z"/>
			<path id="Path_2220" class="st1" d="M28.5,42l-3,1.4c-3.8-6.7-4.4-14.7-1.6-21.9l3.4,1.6c1.2,0.6,2.6,0.1,3.2-1
				c0.6-1.2,0.1-2.6-1-3.2c0,0-0.1,0-0.1-0.1L26,17.3c4.3-7,11.6-11.6,19.8-12.3v3.6c0,1.3,1.1,2.4,2.4,2.4c1.3,0,2.4-1.1,2.4-2.4
				V4.9c2.9,0.3,5.7,1,8.3,2.2c1.2,0.6,2.6,0,3.2-1.2s0-2.6-1.2-3.2c0,0,0,0,0,0c-15.5-7-33.7-0.1-40.7,15.4
				c-4.4,9.7-3.4,21,2.5,29.8c0.7,1,2,1.4,3.1,0.8l4.9-2.4c1.2-0.6,1.7-2,1.2-3.2C31.2,41.9,29.8,41.4,28.5,42
				C28.6,42,28.5,42,28.5,42L28.5,42z"/>
			<path id="Path_2221" class="st1" d="M76.3,18.2c-0.5-1.2-2-1.7-3.2-1.2c-1.2,0.5-1.7,2-1.2,3.2c3.4,7.5,3,16.2-1,23.3L67.8,42
				c-1.2-0.6-2.6-0.1-3.2,1.1c-0.6,1.2-0.1,2.6,1.1,3.2c0,0,0,0,0.1,0l5,2.4c1.1,0.5,2.4,0.2,3-0.8C79.7,39.1,80.6,27.8,76.3,18.2
				L76.3,18.2z"/>
		</g>
	</g>
</g>
</svg>
