<svg xmlns="http://www.w3.org/2000/svg" width="35.69" height="28.719" viewBox="0 0 35.69 28.719">
  <g id="grid_1_" data-name="grid (1)" transform="translate(0 -50)">
    <g id="Group_11" data-name="Group 11" transform="translate(0 50)">
      <path id="Path_15" data-name="Path 15" d="M31.508,50H4.182A4.187,4.187,0,0,0,0,54.182V74.537a4.187,4.187,0,0,0,4.182,4.182H31.508a4.187,4.187,0,0,0,4.182-4.182V54.182A4.187,4.187,0,0,0,31.508,50ZM10.874,75.931H4.182a1.4,1.4,0,0,1-1.394-1.394V70.215h8.086Zm0-8.5H2.788V61.293h8.086Zm0-8.922H2.788V54.182a1.4,1.4,0,0,1,1.394-1.394h6.692ZM22.1,75.931H13.663V70.215H22.1Zm0-8.5H13.663V61.293H22.1Zm0-8.922H13.663V52.788H22.1ZM32.9,74.537a1.4,1.4,0,0,1-1.394,1.394H24.885V70.215H32.9Zm0-7.11H24.885V61.293H32.9Zm0-8.922H24.885V52.788h6.622A1.4,1.4,0,0,1,32.9,54.182Z" transform="translate(0 -50)" fill="#e6eef5"/>
    </g>
  </g>
</svg>
