<svg height='300px' width='300px'  fill="#e6eef5" xmlns="http://www.w3.org/2000/svg" xmlns:xlink="http://www.w3.org/1999/xlink" version="1.1" x="0px" y="0px" viewBox="0 0 38 30" xml:space="preserve"><g transform="translate(-90 -1400)"><g xmlns="http://www.w3.org/2000/svg" xmlns:xlink="http://www.w3.org/1999/xlink"><rect x="101" y="1414" width="1" height="1"></rect><rect x="104" y="1414" width="2" height="1"></rect><g><path d="M124,1405v-3h-1l-1,2l-4,4l-4,3v3l-5,2l-7-1l-3,1h-3v-1l-2-1v-2h-3v2l5,4l1,6l20,3l1-1v-3l2-4v-2l3-1v-1h-1v-4l1-1v1h1     l2-1v-5H124z"></path></g><rect x="108" y="1414" width="2" height="1"></rect><rect x="111" y="1413" width="1" height="1"></rect></g></g></svg>