<svg xmlns="http://www.w3.org/2000/svg" width="33" height="33" viewBox="0 0 33 33">
  <g id="Group_5110" data-name="Group 5110" transform="translate(-1266 -884)">
    <circle id="Ellipse_5" data-name="Ellipse 5" cx="16.5" cy="16.5" r="16.5" transform="translate(1266 884)" fill="#6599ff" opacity="0.17"/>
    <g id="view_1_" data-name="view (1)" transform="translate(1272 894)">
      <g id="Group_25" data-name="Group 25" transform="translate(0 0)">
        <g id="Group_24" data-name="Group 24" transform="translate(0 0)">
          <path id="Path_26" data-name="Path 26" d="M21.391,99.277c-.192-.263-4.775-6.442-10.627-6.442S.329,99.014.137,99.276a.71.71,0,0,0,0,.838c.192.263,4.775,6.442,10.627,6.442s10.435-6.179,10.627-6.442A.71.71,0,0,0,21.391,99.277Zm-10.627,5.86c-4.311,0-8.045-4.1-9.15-5.442,1.1-1.342,4.83-5.441,9.15-5.441s8.044,4.1,9.15,5.442C18.81,101.038,15.084,105.137,10.764,105.137Z" transform="translate(0 -92.835)" fill="#6599ff"/>
        </g>
      </g>
      <g id="Group_27" data-name="Group 27" transform="translate(6.505 2.602)">
        <g id="Group_26" data-name="Group 26" transform="translate(0 0)">
          <path id="Path_27" data-name="Path 27" d="M158.98,154.725a4.258,4.258,0,1,0,4.258,4.258A4.263,4.263,0,0,0,158.98,154.725Zm0,7.1a2.839,2.839,0,1,1,2.839-2.839A2.842,2.842,0,0,1,158.98,161.822Z" transform="translate(-154.722 -154.725)" fill="#6599ff"/>
        </g>
      </g>
    </g>
  </g>
</svg>
