<?xml version="1.0" encoding="utf-8"?>
<!-- Generator: Adobe Illustrator 24.2.3, SVG Export Plug-In . SVG Version: 6.00 Build 0)  -->
<svg version="1.1" id="Layer_1" xmlns="http://www.w3.org/2000/svg" xmlns:xlink="http://www.w3.org/1999/xlink" x="0px" y="0px"
	 viewBox="0 0 299.4 251.8" style="enable-background:new 0 0 299.4 251.8;" xml:space="preserve">
<style type="text/css">
	.st0{fill:#E6EEF5;stroke:#E6EEF5;stroke-width:2;stroke-miterlimit:10;}
	.st1{fill:none;stroke:#E6EEF5;stroke-width:9;stroke-miterlimit:10;}
</style>
<g>
	<path class="st0" d="M290.1,250.8H9.3c-4.6,0-8.3-3.7-8.3-8.3v0c0-4.6,3.7-8.3,8.3-8.3h280.8c4.6,0,8.3,3.7,8.3,8.3v0
		C298.4,247.1,294.7,250.8,290.1,250.8z"/>
	<path class="st1" d="M72.1,182.4h-53c-5,0-9.1-4.1-9.1-9.1V130c0-5,4.1-9.1,9.1-9.1h53c5,0,9.1,4.1,9.1,9.1v43.3
		C81.2,178.4,77.1,182.4,72.1,182.4z"/>
	<path class="st1" d="M175.7,111.4h-53c-5,0-9.1-4.1-9.1-9.1V13.6c0-5,4.1-9.1,9.1-9.1h53c5,0,9.1,4.1,9.1,9.1v88.6
		C184.8,107.3,180.7,111.4,175.7,111.4z"/>
	<path class="st1" d="M279.3,182.4h-53c-5,0-9.1-4.1-9.1-9.1V13.6c0-5,4.1-9.1,9.1-9.1h53c5,0,9.1,4.1,9.1,9.1v159.7
		C288.4,178.4,284.3,182.4,279.3,182.4z"/>
</g>
</svg>
